<?xml version="1.0" encoding="utf-8"?>
<!-- Generator: Adobe Illustrator 22.0.1, SVG Export Plug-In . SVG Version: 6.00 Build 0)  -->
<svg version="1.1" id="Слой_1" xmlns="http://www.w3.org/2000/svg" xmlns:xlink="http://www.w3.org/1999/xlink" x="0px" y="0px"
	 viewBox="0 0 15.2 11.3" style="enable-background:new 0 0 15.2 11.3;" xml:space="preserve">
<style type="text/css">
	.st0{fill:#FFFFFF;}
</style>
<g>
	<g>
		<g>
			<path class="st0" d="M12.8,4.9h-8c-0.4,0-0.7,0.3-0.7,0.7c0,0.4,0.3,0.7,0.7,0.7h8l-0.9,0.9c-0.3,0.3-0.3,0.7,0,1
				c0.3,0.3,0.7,0.3,1,0L15,6.1c0,0,0,0,0-0.1c0,0,0,0,0,0c0,0,0,0,0,0c0,0,0,0,0,0c0,0,0,0,0,0c0,0,0,0,0,0c0,0,0,0,0-0.1
				c0,0,0,0,0,0c0,0,0,0,0-0.1c0,0,0,0,0,0c0,0,0,0,0-0.1c0,0,0,0,0,0c0,0,0,0,0,0c0,0,0,0,0-0.1s0,0,0-0.1c0,0,0,0,0,0c0,0,0,0,0,0
				c0,0,0,0,0-0.1c0,0,0,0,0,0c0,0,0,0,0-0.1c0,0,0,0,0,0c0,0,0,0,0-0.1c0,0,0,0,0,0c0,0,0,0,0,0c0,0,0,0,0,0c0,0,0,0,0,0
				c0,0,0,0,0,0c0,0,0,0,0-0.1l-2.1-2.1c-0.1-0.1-0.3-0.2-0.5-0.2c-0.2,0-0.4,0.1-0.5,0.2c-0.3,0.3-0.3,0.7,0,1L12.8,4.9z M12.8,4.9
				"/>
		</g>
	</g>
	<g>
		<g>
			<path class="st0" d="M5.6,11.3c1.9,0,3.6-0.9,4.7-2.5c0.2-0.3,0.1-0.7-0.2-1C9.8,7.6,9.4,7.7,9.2,8C8.4,9.2,7.1,9.9,5.6,9.9
				C3.3,9.9,1.4,8,1.4,5.6c0-2.3,1.9-4.3,4.3-4.3c1.4,0,2.7,0.7,3.5,1.9c0.2,0.3,0.6,0.4,1,0.2c0.3-0.2,0.4-0.6,0.2-1
				C9.3,0.9,7.5,0,5.6,0C2.5,0,0,2.5,0,5.6C0,8.7,2.5,11.3,5.6,11.3L5.6,11.3z M5.6,11.3"/>
		</g>
	</g>
</g>
</svg>
