<?xml version="1.0" encoding="utf-8"?>
<!-- Generator: Adobe Illustrator 22.0.1, SVG Export Plug-In . SVG Version: 6.00 Build 0)  -->
<svg version="1.1" id="Слой_1" xmlns="http://www.w3.org/2000/svg" xmlns:xlink="http://www.w3.org/1999/xlink" x="0px" y="0px"
	 viewBox="0 0 38.3 38.3" style="enable-background:new 0 0 38.3 38.3;" xml:space="preserve">
<style type="text/css">
	.st0{fill:#FFFFFF;}
</style>
<g>
	<g>
		<g>
			<path class="st0" d="M9.6,34.3c-0.1,0-0.1,0-0.2,0c-0.2-0.1-0.3-0.2-0.4-0.3l-5-9.9c-0.1-0.2-0.1-0.3,0-0.5
				c0.1-0.2,0.2-0.3,0.3-0.4l1.3-0.6c0.8-0.4,1.8-0.1,2.2,0.7l4.1,8.2c0.4,0.8,0.1,1.8-0.7,2.2l0,0l-1.3,0.6
				C9.8,34.3,9.7,34.3,9.6,34.3z M10.9,33L10.9,33L10.9,33z M5.6,24l4.4,8.8l0.7-0.3c0.2-0.1,0.2-0.3,0.1-0.4l-4.1-8.2
				c-0.1-0.2-0.3-0.2-0.4-0.1L5.6,24z"/>
		</g>
	</g>
	<g>
		<g>
			<path class="st0" d="M24.9,30.7H12.7c-0.4,0-0.6-0.3-0.6-0.6s0.3-0.6,0.6-0.6h12.2c1.3,0,2.6-0.6,3.4-1.7l4.7-6.2
				c0.1-0.1,0.1-0.3,0-0.4c-0.1-0.1-0.3-0.2-0.5,0l-4.3,4.6c-0.7,0.7-1.6,1.1-2.6,1.1h-5.6c-0.9,0-1.6-0.7-1.6-1.6
				c0-0.9,0.7-1.6,1.6-1.6h5c0.2,0,0.3-0.1,0.3-0.3c0-0.2-0.1-0.3-0.3-0.3h-5.1c-0.8,0-1.7-0.2-2.9-1.3c-1.6-1.4-4-1.4-5.6,0L9.9,23
				l2.4,4.7c0.2,0.3,0,0.7-0.3,0.9c-0.3,0.2-0.7,0-0.9-0.3l-2.6-5.2c-0.1-0.3-0.1-0.6,0.2-0.8l1.8-1.6c2.1-1.8,5.2-1.8,7.3,0
				c1,0.9,1.5,1,2,1h5.1c0.9,0,1.6,0.7,1.6,1.6c0,0.9-0.7,1.6-1.6,1.6h-5c-0.2,0-0.3,0.1-0.3,0.3c0,0.2,0.1,0.3,0.3,0.3h5.6
				c0.6,0,1.2-0.3,1.7-0.7l4.3-4.6c0.6-0.6,1.6-0.7,2.3-0.1c0.6,0.6,0.7,1.5,0.2,2.2l-4.7,6.2C28.3,29.9,26.6,30.7,24.9,30.7z"/>
		</g>
	</g>
</g>
<g>
	<g>
		<path class="st0" d="M21.1,10.7c-1.8,0-3.4-1.5-3.4-3.3c0-1.8,1.6-3.4,3.4-3.4c1.8,0,3.3,1.6,3.3,3.4
			C24.4,9.3,22.9,10.7,21.1,10.7z M21.1,5.3c-1.1,0-2.1,1-2.1,2.1c0,1.1,1,2,2.1,2c1.1,0,2-0.9,2-2C23.1,6.3,22.2,5.3,21.1,5.3z"/>
	</g>
</g>
<g>
	<g>
		<path class="st0" d="M24.7,17.9h-9c-0.4,0-0.6-0.3-0.6-0.6c0-3.3,2.8-6.1,6.1-6.1c2.6,0,5,1.8,5.7,4.3c0.1,0.3-0.1,0.7-0.4,0.8
			c-0.3,0.1-0.7-0.1-0.8-0.4c-0.6-2-2.4-3.4-4.5-3.4c-2.4,0-4.4,1.8-4.7,4.1h8.3c0.4,0,0.6,0.3,0.6,0.6C25.3,17.6,25,17.9,24.7,17.9
			z"/>
	</g>
</g>
</svg>
