<?xml version="1.0" encoding="utf-8"?>
<!-- Generator: Adobe Illustrator 22.0.1, SVG Export Plug-In . SVG Version: 6.00 Build 0)  -->
<svg version="1.1" id="Слой_1" xmlns="http://www.w3.org/2000/svg" xmlns:xlink="http://www.w3.org/1999/xlink" x="0px" y="0px"
	 viewBox="0 0 38.3 38.3" style="enable-background:new 0 0 38.3 38.3;" xml:space="preserve">
<style type="text/css">
	.st0{fill:#FFFFFF;}
</style>
<g>
	<g>
		<path class="st0" d="M13.4,24.2"/>
	</g>
</g>
<g>
	<g>
		<path class="st0" d="M19.2,30.6c-3,0-5.5-2-6.2-4.9c-0.1-0.3,0.1-0.7,0.5-0.8c0.3-0.1,0.7,0.1,0.8,0.5c0.6,2.3,2.6,4,5,4
			c2.4,0,4.5-1.6,5-4c0.1-0.3,0.4-0.5,0.8-0.5c0.3,0.1,0.5,0.4,0.5,0.8C24.7,28.6,22.2,30.6,19.2,30.6z"/>
	</g>
</g>
<g>
	<g>
		<path class="st0" d="M19.2,24.4c-4,0-7.2-3.2-7.2-7.2v-3.4c0,0,0-0.1,0-0.1c0-1.7,1.4-3,3-3h9.2c0.3,0,0.6,0.3,0.6,0.6
			c0,0.3-0.3,0.6-0.6,0.6H15c-1,0-1.7,0.8-1.8,1.7c0,0,0,0.1,0,0.1v3.5c0,3.3,2.7,6,6,6c3.3,0,6-2.7,6-6v-4.4c0-0.3,0.3-0.6,0.6-0.6
			c0.3,0,0.6,0.3,0.6,0.6v4.4C26.4,21.2,23.2,24.4,19.2,24.4z"/>
	</g>
</g>
<g>
	<g>
		<path class="st0" d="M12.6,16.8c-0.1,0-0.2,0-0.3-0.1c-2-1-1.9-4-1.9-6.1l0-0.6c0-1.9,1.4-3.5,3.2-3.7c0.3-0.9,1.1-1.6,2.1-1.6
			h7.7c2.5,0,4.6,2,4.6,4.6l0,1.4c0,2,0.1,5-1.9,6.1c-0.3,0.2-0.7,0-0.8-0.3c-0.2-0.3,0-0.7,0.3-0.8c1.3-0.7,1.2-3.2,1.2-4.9l0-1.4
			c0-1.8-1.5-3.3-3.3-3.3h-7.7c-0.5,0-0.9,0.4-0.9,0.9c0,0.3-0.3,0.6-0.6,0.6c-1.4,0-2.5,1.1-2.5,2.5l0,0.7c0,1.7-0.1,4.3,1.2,4.9
			c0.3,0.2,0.4,0.5,0.3,0.8C13,16.7,12.8,16.8,12.6,16.8z"/>
	</g>
</g>
<g>
	<g>
		<path class="st0" d="M30,33.9H8.4c-1.4,0-2.5-1.1-2.5-2.5c0-5.8,3.5-6,5.8-6.2c0.3,0,0.7,0,1-0.1c0.5-0.1,0.9-0.3,1.1-0.7
			c0.4-0.8,0.3-1.9,0.2-2.3c-0.1-0.3,0-0.7,0.3-0.8c0.3-0.1,0.7,0,0.8,0.3c0.2,0.6,0.5,2.2-0.2,3.4c-0.4,0.7-1.1,1.2-2,1.3
			c-0.3,0-0.7,0.1-1,0.1c-2.3,0.1-4.7,0.3-4.7,4.9c0,0.7,0.5,1.2,1.2,1.2H30c0.7,0,1.2-0.5,1.2-1.2c0-4.7-2.4-4.8-4.7-4.9
			c-0.4,0-0.7,0-1-0.1c-0.9-0.1-1.6-0.6-2-1.3c-0.7-1.2-0.5-2.8-0.2-3.4c0.1-0.3,0.5-0.5,0.8-0.3c0.3,0.1,0.5,0.5,0.3,0.8
			c-0.1,0.3-0.3,1.5,0.2,2.3c0.2,0.4,0.6,0.6,1.1,0.7c0.3,0,0.6,0.1,1,0.1c2.3,0.1,5.8,0.4,5.8,6.2C32.4,32.8,31.3,33.9,30,33.9z"/>
	</g>
</g>
<g>
	<g>
		<path class="st0" d="M25.5,14.1"/>
	</g>
</g>
<g>
	<g>
		<path class="st0" d="M29.5,14.1"/>
	</g>
</g>
<g>
	<g>
		<path class="st0" d="M33,17.9c-0.2,0-0.4-0.1-0.6-0.3c-0.2-0.3,0-0.7,0.3-0.8c0.7-0.4,0.7-2,0.7-3l0-0.9c0-1.1-0.9-1.9-1.9-1.9
			h-1.9c-0.3,0-0.6-0.3-0.6-0.6s0.3-0.6,0.6-0.6h1.9c1.8,0,3.2,1.4,3.2,3.2l0,0.9c0,1.4,0,3.4-1.4,4.1C33.2,17.9,33.1,17.9,33,17.9z
			"/>
	</g>
</g>
<g>
	<g>
		<path class="st0" d="M29.6,10.2"/>
	</g>
</g>
<g>
	<g>
		<path class="st0" d="M35.7,29H34c-0.3,0-0.6-0.3-0.6-0.6s0.3-0.6,0.6-0.6h1.7c0.3,0,0.6-0.3,0.6-0.6c0-2.8-1.3-2.9-2.8-3
			c-0.2,0-0.5,0-0.7-0.1c-0.7-0.1-1.2-0.4-1.5-0.9c-0.5-0.9-0.3-2-0.2-2.4c0.1-0.3,0.5-0.5,0.8-0.3c0.3,0.1,0.5,0.5,0.3,0.8
			c-0.1,0.2-0.2,0.9,0.1,1.3c0.1,0.2,0.3,0.3,0.6,0.3c0.2,0,0.4,0,0.6,0c1.5,0.1,4,0.2,4,4.2C37.5,28.2,36.7,29,35.7,29z"/>
	</g>
</g>
<g>
	<g>
		<path class="st0" d="M33.8,29"/>
	</g>
</g>
<g>
	<g>
		<path class="st0" d="M9.6,22.9c-2.7,0-4.9-2.2-4.9-4.9v-2.2c0,0,0-0.1,0-0.1c0-1.2,1-2.2,2.2-2.2h1.8c0.3,0,0.6,0.3,0.6,0.6
			c0,0.3-0.3,0.6-0.6,0.6H6.8c-0.5,0-0.9,0.4-0.9,0.9c0,0,0,0,0,0.1v2.3c0,2,1.6,3.7,3.7,3.7c0.7,0,1.3-0.2,1.9-0.5
			c0.3-0.2,0.7-0.1,0.9,0.2c0.2,0.3,0.1,0.7-0.2,0.9C11.3,22.6,10.5,22.9,9.6,22.9z"/>
	</g>
</g>
<g>
	<g>
		<path class="st0" d="M28.6,22.9c-0.9,0-1.8-0.2-2.5-0.7c-0.3-0.2-0.4-0.6-0.2-0.9c0.2-0.3,0.6-0.4,0.9-0.2
			c0.6,0.3,1.2,0.5,1.9,0.5c2,0,3.7-1.6,3.7-3.7v-2.3c0,0,0,0,0-0.1c0-0.5-0.4-0.9-0.9-0.9h-1.8c-0.3,0-0.6-0.3-0.6-0.6
			c0-0.3,0.3-0.6,0.6-0.6h1.8c1.2,0,2.2,1,2.2,2.2c0,0,0,0.1,0,0.1v2.2C33.5,20.6,31.3,22.9,28.6,22.9z"/>
	</g>
</g>
<g>
	<g>
		<path class="st0" d="M5.3,17.9c-0.1,0-0.2,0-0.3-0.1c-1.4-0.7-1.4-2.8-1.4-4.1l0-0.4c0-1.3,0.9-2.4,2.1-2.6C6,10,6.6,9.6,7.3,9.6
			h1.4c0.3,0,0.6,0.3,0.6,0.6S9,10.8,8.7,10.8H7.3c-0.2,0-0.4,0.2-0.4,0.4c0,0.3-0.3,0.6-0.6,0.6c-0.8,0-1.4,0.6-1.4,1.4l0,0.4
			c0,1,0,2.6,0.7,3c0.3,0.2,0.4,0.5,0.3,0.8C5.7,17.8,5.5,17.9,5.3,17.9z"/>
	</g>
</g>
<g>
	<g>
		<path class="st0" d="M4.3,29H2.6c-1,0-1.8-0.8-1.8-1.8c0-4,2.5-4.1,4-4.2c0.2,0,0.4,0,0.6,0c0.3,0,0.4-0.1,0.6-0.3
			c0.2-0.4,0.2-1.1,0.1-1.3c-0.1-0.3,0-0.7,0.3-0.8c0.3-0.1,0.7,0,0.8,0.3c0.2,0.4,0.3,1.5-0.2,2.4c-0.3,0.5-0.8,0.9-1.5,0.9
			c-0.2,0-0.4,0-0.7,0.1c-1.5,0.1-2.8,0.2-2.8,3c0,0.3,0.3,0.6,0.6,0.6h1.7c0.3,0,0.6,0.3,0.6,0.6S4.6,29,4.3,29z"/>
	</g>
</g>
</svg>
