<?xml version="1.0" encoding="utf-8"?>
<!-- Generator: Adobe Illustrator 22.0.1, SVG Export Plug-In . SVG Version: 6.00 Build 0)  -->
<svg version="1.1" id="Слой_1" xmlns="http://www.w3.org/2000/svg" xmlns:xlink="http://www.w3.org/1999/xlink" x="0px" y="0px"
	 viewBox="0 0 38.3 38.3" style="enable-background:new 0 0 38.3 38.3;" xml:space="preserve">
<style type="text/css">
	.st0{fill:#FFFFFF;}
</style>
<g>
	<g>
		<path class="st0" d="M5.3,9.1c0,1.7,1.4,3.1,3.1,3.1s3.1-1.4,3.1-3.1c0-1.7-1.4-3.1-3.1-3.1C6.7,6.1,5.3,7.5,5.3,9.1z M8.4,7
			c1.2,0,2.1,1,2.1,2.1c0,1.2-1,2.1-2.1,2.1c-1.2,0-2.1-1-2.1-2.1C6.2,8,7.2,7,8.4,7z"/>
	</g>
</g>
<g>
	<g>
		<path class="st0" d="M8.8,5.2v-1c0-0.3-0.2-0.5-0.5-0.5S7.9,3.9,7.9,4.2v1c0,0.3,0.2,0.5,0.5,0.5S8.8,5.4,8.8,5.2z"/>
	</g>
</g>
<g>
	<g>
		<path class="st0" d="M11.5,5.3L10.8,6c-0.2,0.2-0.2,0.5,0,0.7c0.1,0.1,0.2,0.1,0.3,0.1c0.1,0,0.2,0,0.3-0.1L12.2,6
			c0.2-0.2,0.2-0.5,0-0.7C12,5.1,11.7,5.1,11.5,5.3z"/>
	</g>
</g>
<g>
	<g>
		<path class="st0" d="M13.3,9.6c0.3,0,0.5-0.2,0.5-0.5c0-0.3-0.2-0.5-0.5-0.5h-1c-0.3,0-0.5,0.2-0.5,0.5c0,0.3,0.2,0.5,0.5,0.5
			H13.3z"/>
	</g>
</g>
<g>
	<g>
		<path class="st0" d="M10.8,11.6c-0.2,0.2-0.2,0.5,0,0.7l0.7,0.7c0.1,0.1,0.2,0.1,0.3,0.1s0.2,0,0.3-0.1c0.2-0.2,0.2-0.5,0-0.7
			l-0.7-0.7C11.3,11.4,11,11.4,10.8,11.6z"/>
	</g>
</g>
<g>
	<g>
		<path class="st0" d="M7.9,13.1v1c0,0.3,0.2,0.5,0.5,0.5s0.5-0.2,0.5-0.5v-1c0-0.3-0.2-0.5-0.5-0.5S7.9,12.9,7.9,13.1z"/>
	</g>
</g>
<g>
	<g>
		<path class="st0" d="M4.5,13c0.1,0.1,0.2,0.1,0.3,0.1c0.1,0,0.2,0,0.3-0.1l0.7-0.7c0.2-0.2,0.2-0.5,0-0.7c-0.2-0.2-0.5-0.2-0.7,0
			l-0.7,0.7C4.3,12.5,4.3,12.8,4.5,13z"/>
	</g>
</g>
<g>
	<g>
		<path class="st0" d="M3.4,9.6h1c0.3,0,0.5-0.2,0.5-0.5c0-0.3-0.2-0.5-0.5-0.5h-1c-0.3,0-0.5,0.2-0.5,0.5C2.9,9.4,3.1,9.6,3.4,9.6z
			"/>
	</g>
</g>
<g>
	<g>
		<path class="st0" d="M5.2,5.3C5,5.1,4.7,5.1,4.5,5.3C4.3,5.5,4.3,5.8,4.5,6l0.7,0.7c0.1,0.1,0.2,0.1,0.3,0.1c0.1,0,0.2,0,0.3-0.1
			c0.2-0.2,0.2-0.5,0-0.7L5.2,5.3z"/>
	</g>
</g>
<g>
	<g>
		<path class="st0" d="M27.7,18.7c0.1,0.2,0.3,0.3,0.5,0.2c1.1-0.2,2.3-0.1,3.5,0.4c1.1,0.5,2.1,1.2,2.8,2.1
			c0.1,0.1,0.2,0.2,0.4,0.2c0,0,0.1,0,0.1,0c0.2,0,0.3-0.2,0.4-0.4c0-0.1,0.4-3.1-0.6-6.4c-0.1-0.3-0.3-0.4-0.6-0.3
			c-0.3,0.1-0.4,0.3-0.3,0.6c0.6,1.9,0.6,3.8,0.6,4.9c-0.7-0.7-1.5-1.2-2.4-1.6c-1.1-0.4-2.2-0.6-3.2-0.5c0,0,0,0,0-0.1
			c0.4-1.1,0.7-2.3,0.8-3.5c0.1-1.1,0.1-2.2,0-3.3c-0.1-0.6-0.2-1.3-0.4-1.9c0,0,0,0,0,0c1.7,0.9,3,2.3,3.9,4.1
			c0.1,0.2,0.4,0.3,0.6,0.2c0.2-0.1,0.3-0.4,0.2-0.6c-1.2-2.4-3-4.1-5.5-5.1c-3.4-1.4-7-0.9-10.3,1.3c-2.5,1.6-3.9,3.7-4,3.8
			c-0.1,0.2-0.1,0.4,0,0.5c0.1,0.2,0.3,0.2,0.5,0.2c1.1-0.2,2.3-0.1,3.5,0.4c1.1,0.5,2.1,1.2,2.8,2.1c0.1,0.2,0.3,0.3,0.6,0.2
			c0.6-0.1,1.2-0.1,1.9,0l-3.8,9.6c-0.1,0-0.2,0-0.3,0c-2.2,0-4.3,0.2-6.2,0.7c-0.3,0.1-0.4,0.3-0.4,0.6c0.1,0.3,0.3,0.4,0.6,0.4
			c1.9-0.4,3.9-0.6,6-0.6c1,0,2,0,3,0.1c0,0,0,0,0,0c1.8,0.2,3.6,0.5,5.1,1c1.8,0.6,3.2,1.4,4,2.3c-0.4,0.1-0.8,0.3-1.2,0.6
			c-1.2,0.8-2.7,0.8-3.9,0c-1.5-1-3.5-1-5,0c-1.2,0.8-2.7,0.8-3.9,0c-1.5-1-3.5-1-5,0c-1.2,0.8-2.7,0.8-3.9,0
			c-0.4-0.3-0.8-0.4-1.2-0.6c0.8-0.9,2.2-1.7,4-2.3c0.2-0.1,0.4-0.4,0.3-0.6c-0.1-0.2-0.4-0.4-0.6-0.3c-2.3,0.8-3.9,1.8-4.8,3
			c-1-0.1-1.9,0.2-2.7,0.8C3,30.9,3,31.2,3.1,31.5c0.1,0.2,0.4,0.3,0.7,0.1c0.7-0.5,1.5-0.7,2.3-0.6c0,0,0.1,0,0.1,0
			c0.5,0.1,1,0.3,1.5,0.6c1.5,1,3.5,1,5,0c1.2-0.8,2.7-0.8,3.9,0c1.5,1,3.5,1,5,0c1.2-0.8,2.7-0.8,3.9,0c0.8,0.5,1.6,0.8,2.5,0.8
			s1.7-0.3,2.5-0.8c0.5-0.3,1-0.5,1.5-0.6c0,0,0.1,0,0.1,0c0.8-0.1,1.6,0.1,2.3,0.6c0.2,0.1,0.5,0.1,0.7-0.1
			c0.1-0.2,0.1-0.5-0.1-0.7c-0.8-0.6-1.8-0.8-2.7-0.8c-0.9-1.2-2.5-2.2-4.8-3c-1.4-0.5-3-0.8-4.7-1l3.4-8.6
			C26.8,17.8,27.3,18.2,27.7,18.7z M22.1,15.2C22.1,15.2,22.1,15.2,22.1,15.2c0.5-1,1-1.9,1.6-2.7c0.1-0.2,0.1-0.5-0.1-0.7
			c-0.2-0.2-0.5-0.1-0.7,0.1c-0.5,0.7-0.9,1.4-1.3,2.1c-0.1,0.3-0.3,0.5-0.4,0.8c0,0,0,0,0,0c-0.7-0.8-1.7-1.4-2.7-1.8
			c-0.9-0.4-1.9-0.6-2.8-0.5c0.6-0.7,1.7-1.8,3-2.7c1.4-0.9,2.7-1.5,4.1-1.7c1.4-0.2,2.7-0.2,4.1,0.2c0,0,0,0,0,0
			c-0.7,0.4-1.4,0.9-2,1.5c-0.2,0.2-0.5,0.4-0.7,0.7c-0.2,0.2-0.2,0.5,0,0.7c0.2,0.2,0.5,0.2,0.7,0c0.6-0.6,1.3-1.2,2.1-1.7
			C27.3,9.2,27.6,9,28,8.8c0.1,0.2,0.2,0.6,0.4,1c0.6,2.1,0.4,4.3-0.1,6.4c-0.1,0.4-0.2,0.9-0.4,1.3c0,0,0,0,0,0
			c-0.6-0.7-1.4-1.2-2.3-1.7c0,0,0,0,0,0C24.4,15.4,23.3,15.1,22.1,15.2z M25.5,16.9l-3.6,9c-0.2,0-0.4,0-0.7-0.1
			c-0.2,0-0.5,0-0.7,0l3.7-9.4c0.2,0.1,0.4,0.1,0.7,0.2C25,16.7,25.5,16.9,25.5,16.9z"/>
	</g>
</g>
</svg>
