<?xml version="1.0" encoding="utf-8"?>
<!-- Generator: Adobe Illustrator 22.0.1, SVG Export Plug-In . SVG Version: 6.00 Build 0)  -->
<svg version="1.1" id="Слой_1" xmlns="http://www.w3.org/2000/svg" xmlns:xlink="http://www.w3.org/1999/xlink" x="0px" y="0px"
	 viewBox="0 0 38.3 38.3" style="enable-background:new 0 0 38.3 38.3;" xml:space="preserve">
<style type="text/css">
	.st0{fill:#FFFFFF;}
</style>
<g>
	<g>
		<path class="st0" d="M28.6,32.3c-4.4,0-8-3.6-8-8s3.6-8,8-8c4.4,0,8,3.6,8,8S33,32.3,28.6,32.3z M28.6,17.7c-3.7,0-6.7,3-6.7,6.7
			s3,6.7,6.7,6.7c3.7,0,6.7-3,6.7-6.7S32.3,17.7,28.6,17.7z"/>
	</g>
</g>
<g>
	<g>
		<path class="st0" d="M32.1,27.4c-0.1,0-0.3,0-0.4-0.1c-0.3-0.2-0.4-0.6-0.2-0.9c0.4-0.6,0.6-1.3,0.6-2c0-1.9-1.6-3.5-3.5-3.5
			c-0.4,0-0.6-0.3-0.6-0.6s0.3-0.6,0.6-0.6c2.7,0,4.8,2.2,4.8,4.8c0,1-0.3,1.9-0.8,2.7C32.5,27.3,32.3,27.4,32.1,27.4z"/>
	</g>
</g>
<g>
	<g>
		<path class="st0" d="M28.6,17.7c-0.4,0-0.6-0.3-0.6-0.6v-1.4c0-0.4,0.3-0.6,0.6-0.6c0.4,0,0.6,0.3,0.6,0.6v1.4
			C29.3,17.4,29,17.7,28.6,17.7z"/>
	</g>
</g>
<g>
	<g>
		<path class="st0" d="M29.6,16.3h-2c-0.4,0-0.6-0.3-0.6-0.6s0.3-0.6,0.6-0.6h2c0.4,0,0.6,0.3,0.6,0.6S30,16.3,29.6,16.3z"/>
	</g>
</g>
<g>
	<g>
		<path class="st0" d="M31.5,18.3c-0.1,0-0.2,0-0.3-0.1c-0.3-0.1-0.5-0.5-0.3-0.9l0.6-1.3c0.1-0.3,0.5-0.5,0.9-0.3
			c0.3,0.1,0.5,0.5,0.3,0.9l-0.6,1.3C32,18.2,31.8,18.3,31.5,18.3z"/>
	</g>
</g>
<g>
	<g>
		<path class="st0" d="M22.7,25h-1.3c-0.4,0-0.6-0.3-0.6-0.6s0.3-0.6,0.6-0.6h1.3c0.4,0,0.6,0.3,0.6,0.6S23,25,22.7,25z"/>
	</g>
</g>
<g>
	<g>
		<path class="st0" d="M35.9,25h-1.3c-0.4,0-0.6-0.3-0.6-0.6s0.3-0.6,0.6-0.6h1.3c0.4,0,0.6,0.3,0.6,0.6S36.3,25,35.9,25z"/>
	</g>
</g>
<g>
	<g>
		<path class="st0" d="M28.6,19.1c-0.4,0-0.6-0.3-0.6-0.6v-1.3c0-0.4,0.3-0.6,0.6-0.6c0.4,0,0.6,0.3,0.6,0.6v1.3
			C29.3,18.8,29,19.1,28.6,19.1z"/>
	</g>
</g>
<g>
	<g>
		<path class="st0" d="M28.6,32.3c-0.4,0-0.6-0.3-0.6-0.6v-1.3c0-0.4,0.3-0.6,0.6-0.6c0.4,0,0.6,0.3,0.6,0.6v1.3
			C29.3,32,29,32.3,28.6,32.3z"/>
	</g>
</g>
<g>
	<g>
		<path class="st0" d="M28.6,25.7c-0.8,0-1.5-0.7-1.5-1.5s0.7-1.5,1.5-1.5c0.8,0,1.5,0.7,1.5,1.5S29.5,25.7,28.6,25.7z M28.6,23.9
			c-0.1,0-0.2,0.1-0.2,0.2c0,0.2,0.4,0.2,0.4,0C28.8,24,28.8,23.9,28.6,23.9z"/>
	</g>
</g>
<g>
	<g>
		<path class="st0" d="M32.1,27.4c-0.1,0-0.3,0-0.4-0.1l-2.8-2c-0.3-0.2-0.4-0.6-0.1-0.9c0.2-0.3,0.6-0.4,0.9-0.1l2.8,2
			c0.3,0.2,0.4,0.6,0.1,0.9C32.5,27.3,32.3,27.4,32.1,27.4z"/>
	</g>
</g>
<g>
	<g>
		<path class="st0" d="M22.9,31.9H7c-1.6,0-3-1.3-3-3V7c0-1.6,1.3-3,3-3h15.9c1.6,0,3,1.3,3,3v10.3c0,0.4-0.3,0.6-0.6,0.6
			s-0.6-0.3-0.6-0.6V7c0-0.9-0.8-1.7-1.7-1.7H7C6.1,5.3,5.3,6.1,5.3,7v22c0,0.9,0.8,1.7,1.7,1.7h15.9c0.6,0,1-0.2,1.1-0.3
			c0-0.4,0.3-0.6,0.6-0.6c0.4,0,0.6,0.3,0.6,0.7C25.2,31.3,24.2,31.9,22.9,31.9z"/>
	</g>
</g>
<g>
	<g>
		<path class="st0" d="M11.8,13.4h-3c-0.7,0-1.2-0.5-1.2-1.2v-3c0-0.7,0.5-1.2,1.2-1.2h3c0.7,0,1.2,0.5,1.2,1.2v3
			C13,12.8,12.5,13.4,11.8,13.4z M8.9,12.1h2.8V9.2H8.9V12.1z"/>
	</g>
</g>
<g>
	<g>
		<path class="st0" d="M11.8,20.5h-3c-0.7,0-1.2-0.5-1.2-1.2v-3c0-0.7,0.5-1.2,1.2-1.2h3c0.7,0,1.2,0.5,1.2,1.2v3
			C13,19.9,12.5,20.5,11.8,20.5z M8.9,19.2h2.8v-2.8H8.9V19.2z"/>
	</g>
</g>
<g>
	<g>
		<path class="st0" d="M11.8,27.5h-3c-0.7,0-1.2-0.5-1.2-1.2v-3c0-0.7,0.5-1.2,1.2-1.2h3c0.7,0,1.2,0.5,1.2,1.2v3
			C13,27,12.5,27.5,11.8,27.5z M8.9,26.2h2.8v-2.8H8.9V26.2z"/>
	</g>
</g>
<g>
	<g>
		<path class="st0" d="M22.7,11.3h-7.7c-0.4,0-0.6-0.3-0.6-0.6c0-0.4,0.3-0.6,0.6-0.6h7.7c0.4,0,0.6,0.3,0.6,0.6
			C23.3,11,23,11.3,22.7,11.3z"/>
	</g>
</g>
<g>
	<g>
		<path class="st0" d="M22.7,18.4h-7.7c-0.4,0-0.6-0.3-0.6-0.6s0.3-0.6,0.6-0.6h7.7c0.4,0,0.6,0.3,0.6,0.6S23,18.4,22.7,18.4z"/>
	</g>
</g>
<g>
	<g>
		<path class="st0" d="M18.8,25.5h-3.9c-0.4,0-0.6-0.3-0.6-0.6s0.3-0.6,0.6-0.6h3.9c0.4,0,0.6,0.3,0.6,0.6S19.2,25.5,18.8,25.5z"/>
	</g>
</g>
</svg>
