<?xml version="1.0" encoding="utf-8"?>
<!-- Generator: Adobe Illustrator 22.0.1, SVG Export Plug-In . SVG Version: 6.00 Build 0)  -->
<svg version="1.1" id="Слой_1" xmlns="http://www.w3.org/2000/svg" xmlns:xlink="http://www.w3.org/1999/xlink" x="0px" y="0px"
	 viewBox="0 0 38.3 38.3" style="enable-background:new 0 0 38.3 38.3;" xml:space="preserve">
<style type="text/css">
	.st0{fill:#FFFFFF;}
</style>
<g>
	<g>
		<g>
			<path class="st0" d="M24.9,30.3h-3.6c-0.3,0-0.6-0.3-0.6-0.6c0-0.3,0.3-0.6,0.6-0.6h3.6c0.7,0,1.2-0.5,1.2-1.2
				c0-0.7-0.5-1.2-1.2-1.2h-2.4c-1.3,0-2.4-1.1-2.4-2.4c0-1.3,1.1-2.4,2.4-2.4h3.6c0.3,0,0.6,0.3,0.6,0.6S26.4,23,26.1,23h-3.6
				c-0.7,0-1.2,0.5-1.2,1.2c0,0.7,0.5,1.2,1.2,1.2h2.4c1.3,0,2.4,1.1,2.4,2.4C27.3,29.2,26.2,30.3,24.9,30.3z"/>
		</g>
	</g>
	<g>
		<g>
			<path class="st0" d="M23.7,23c-0.3,0-0.6-0.3-0.6-0.6v-1.2c0-0.3,0.3-0.6,0.6-0.6c0.3,0,0.6,0.3,0.6,0.6v1.2
				C24.3,22.8,24,23,23.7,23z"/>
		</g>
	</g>
	<g>
		<g>
			<path class="st0" d="M23.7,31.5c-0.3,0-0.6-0.3-0.6-0.6v-1.2c0-0.3,0.3-0.6,0.6-0.6c0.3,0,0.6,0.3,0.6,0.6v1.2
				C24.3,31.3,24,31.5,23.7,31.5z"/>
		</g>
	</g>
	<g>
		<g>
			<path class="st0" d="M13.3,26.7c-2.1,0-3.6-2-3.6-4.9c0-2.9,1.5-4.9,3.6-4.9c1.1,0,2.1,0.5,2.9,1.4c0.2,0.3,0.2,0.6-0.1,0.9
				c-0.3,0.2-0.6,0.2-0.9-0.1c-0.6-0.7-1.2-1-2-1c-1.6,0-2.4,1.9-2.4,3.6c0,1.8,0.7,3.6,2.4,3.6c0.8,0,1.4-0.3,2-1
				c0.2-0.3,0.6-0.3,0.9-0.1c0.3,0.2,0.3,0.6,0.1,0.9C15.4,26.2,14.4,26.7,13.3,26.7z"/>
		</g>
	</g>
	<g>
		<g>
			<path class="st0" d="M13.3,21.2H9.1c-0.3,0-0.6-0.3-0.6-0.6S8.7,20,9.1,20h4.3c0.3,0,0.6,0.3,0.6,0.6S13.7,21.2,13.3,21.2z"/>
		</g>
	</g>
	<g>
		<g>
			<path class="st0" d="M13.3,23.6H9.1c-0.3,0-0.6-0.3-0.6-0.6c0-0.3,0.3-0.6,0.6-0.6h4.3c0.3,0,0.6,0.3,0.6,0.6
				C13.9,23.4,13.7,23.6,13.3,23.6z"/>
		</g>
	</g>
	<g>
		<g>
			<path class="st0" d="M17.1,16.3c0.5-0.1,0.8-0.4,1-0.8c-1.3-1-3-1.6-4.8-1.6c0,0.4,0.1,0.8,0.2,1.2
				C14.9,15.2,16.1,15.6,17.1,16.3z"/>
		</g>
	</g>
	<g>
		<g>
			<path class="st0" d="M13.3,28.5c-3.7,0-6.7-3-6.7-6.7c0-3.4,2.5-6.1,5.7-6.6c-0.1-0.4-0.2-0.8-0.2-1.2c-3.8,0.6-6.7,3.8-6.7,7.8
				c0,4.4,3.5,7.9,7.9,7.9c1.1,0,2.1-0.2,3-0.6c-0.2-0.4-0.3-0.8-0.4-1.2C15.2,28.3,14.3,28.5,13.3,28.5z"/>
		</g>
	</g>
	<g>
		<g>
			<path class="st0" d="M19.9,20.5c0-0.2-0.1-0.4-0.1-0.6c-0.3,0-0.7-0.1-1-0.1c-0.4,0.3-0.7,0.6-1,1c0.5,0.1,0.9,0.2,1.4,0.3
				C19.4,20.9,19.6,20.7,19.9,20.5z"/>
		</g>
	</g>
	<g>
		<g>
			<path class="st0" d="M25.9,18.5c-0.3,0.4-0.7,0.7-1.1,1c3.1,0.6,5.5,3.3,5.5,6.6c0,3.7-3,6.7-6.7,6.7c-2.8,0-5.2-1.7-6.2-4.2
				c-0.3,0.2-0.7,0.4-1.1,0.6c1.2,2.9,4,4.9,7.3,4.9c4.4,0,7.9-3.5,7.9-7.9C31.6,22.5,29.2,19.5,25.9,18.5z"/>
		</g>
	</g>
	<g>
		<g>
			<path class="st0" d="M16,27.9c0.4-0.2,0.8-0.4,1.1-0.6C17,26.9,17,26.5,17,26.1c0-1.9,0.8-3.7,2.2-4.9c-0.5-0.1-1-0.2-1.4-0.3
				c-1.2,1.4-2,3.2-2,5.2C15.8,26.7,15.8,27.3,16,27.9z"/>
		</g>
	</g>
	<g>
		<g>
			<path class="st0" d="M17.1,27.3c-0.3,0.2-0.7,0.4-1.1,0.6c0.1,0.4,0.2,0.8,0.4,1.2c0.4-0.2,0.7-0.4,1.1-0.6
				C17.3,28.1,17.2,27.7,17.1,27.3z"/>
		</g>
	</g>
	<g>
		<g>
			<path class="st0" d="M19.5,19.3c-0.3,0.2-0.5,0.3-0.8,0.5c0.3,0.1,0.6,0.1,1,0.1C19.7,19.8,19.6,19.5,19.5,19.3z"/>
		</g>
	</g>
	<g>
		<g>
			<path class="st0" d="M22.5,19.5c-0.5,0.1-1,0.2-1.4,0.4C21.6,19.8,22.1,19.7,22.5,19.5z"/>
		</g>
	</g>
	<g>
		<g>
			<path class="st0" d="M21.1,19.9c0.4-0.2,0.9-0.3,1.4-0.4c0.7-0.3,1.4-0.7,2-1.3c-0.3,0-0.6-0.1-0.9-0.1c-1.1,0-2.1,0.2-3,0.6
				c0.2,0.4,0.3,0.7,0.4,1.1C21,19.9,21.1,19.9,21.1,19.9z"/>
		</g>
	</g>
	<g>
		<g>
			<path class="st0" d="M20.6,18.8c-0.2-0.4-0.4-0.8-0.6-1.2h-1.5c0.4,0.5,0.8,1.1,1.1,1.8C19.9,19.1,20.2,18.9,20.6,18.8z"/>
		</g>
	</g>
	<g>
		<g>
			<path class="st0" d="M21,19.9c-0.1-0.4-0.2-0.8-0.4-1.1c-0.4,0.2-0.7,0.4-1.1,0.6c0.1,0.2,0.2,0.4,0.2,0.6c0.1,0,0.2,0,0.3,0
				C20.3,20,20.7,20,21,19.9z"/>
		</g>
	</g>
	<g>
		<g>
			<path class="st0" d="M20,6.6c3.7,0,6.7,3,6.7,6.7c0,1.9-0.8,3.7-2.2,4.9c0.5,0.1,1,0.2,1.4,0.3c1.2-1.4,2-3.2,2-5.2
				c0-4.4-3.5-7.9-7.9-7.9c-4.4,0-7.9,3.5-7.9,7.9c0,0.2,0,0.5,0,0.7c0.4-0.1,0.8-0.1,1.2-0.1c0,0,0,0,0,0c0-0.2,0-0.4,0-0.6
				C13.3,9.6,16.3,6.6,20,6.6z"/>
		</g>
	</g>
	<g>
		<g>
			<path class="st0" d="M21,19.9c0,0,0.1,0,0.1-0.1C21.1,19.9,21,19.9,21,19.9C21,19.9,21,19.9,21,19.9z"/>
		</g>
	</g>
	<g>
		<g>
			<path class="st0" d="M22.5,19.5c0.4-0.1,0.7-0.1,1.1-0.1c0.4,0,0.8,0,1.2,0.1c0.4-0.3,0.7-0.6,1.1-1c-0.5-0.1-0.9-0.2-1.4-0.3
				C23.9,18.7,23.3,19.2,22.5,19.5z"/>
		</g>
	</g>
	<g>
		<g>
			<path class="st0" d="M21,19.9c-0.3,0-0.6,0.1-1,0.1c-0.1,0-0.2,0-0.3,0c0.1,0.2,0.1,0.4,0.1,0.6C20.2,20.3,20.6,20.1,21,19.9
				C21,19.9,21,19.9,21,19.9z"/>
		</g>
	</g>
	<g>
		<g>
			<path class="st0" d="M13.3,15.1c0.1,0,0.2,0,0.3,0c-0.1-0.4-0.2-0.8-0.2-1.2c0,0,0,0,0,0c-0.4,0-0.8,0-1.2,0.1
				c0,0.4,0.1,0.8,0.2,1.2C12.7,15.2,13,15.1,13.3,15.1z"/>
		</g>
	</g>
	<g>
		<g>
			<path class="st0" d="M19.4,10.9c0-0.7,0.5-1.2,1.2-1.2c0.7,0,1.2,0.5,1.2,1.2c0,0.3,0.3,0.6,0.6,0.6c0.3,0,0.6-0.3,0.6-0.6
				c0-1.3-1.1-2.4-2.4-2.4c-1.3,0-2.4,1.1-2.4,2.4v1.8h1.2V10.9z"/>
		</g>
	</g>
	<g>
		<g>
			<path class="st0" d="M20,17.6h1.9c1,0,1.8-0.8,1.8-1.8c0-0.3-0.3-0.6-0.6-0.6c-0.3,0-0.6,0.3-0.6,0.6c0,0.3-0.3,0.6-0.6,0.6h-2.8
				c0.2-0.4,0.3-0.8,0.3-1.2v-1.2h-1.2v1.2c0,0.1,0,0.3-0.1,0.4C18.8,16.1,19.5,16.8,20,17.6z"/>
		</g>
	</g>
	<g>
		<g>
			<path class="st0" d="M18.5,17.6H20c-0.5-0.8-1.1-1.5-1.9-2c-0.2,0.4-0.5,0.7-1,0.8C17.6,16.7,18.1,17.1,18.5,17.6z"/>
		</g>
	</g>
	<g>
		<g>
			<path class="st0" d="M17.6,12.7c-0.3,0-0.6,0.3-0.6,0.6c0,0.3,0.3,0.6,0.6,0.6h0.6v-1.2H17.6z"/>
		</g>
	</g>
	<g>
		<g>
			<path class="st0" d="M20,13.9c0.3,0,0.6-0.3,0.6-0.6c0-0.3-0.3-0.6-0.6-0.6h-0.6v1.2H20z"/>
		</g>
	</g>
	<g>
		<g>
			<rect x="18.2" y="12.7" class="st0" width="1.2" height="1.2"/>
		</g>
	</g>
</g>
</svg>
