<?xml version="1.0" encoding="utf-8"?>
<!-- Generator: Adobe Illustrator 22.0.1, SVG Export Plug-In . SVG Version: 6.00 Build 0)  -->
<svg version="1.1" id="Слой_1" xmlns="http://www.w3.org/2000/svg" xmlns:xlink="http://www.w3.org/1999/xlink" x="0px" y="0px"
	 viewBox="0 0 38.3 38.3" style="enable-background:new 0 0 38.3 38.3;" xml:space="preserve">
<style type="text/css">
	.st0{fill:#FFFFFF;}
</style>
<g>
	<g>
		<g>
			<path class="st0" d="M23.8,21H10.4c-0.4,0-0.6-0.3-0.6-0.7s0.3-0.7,0.6-0.7h13.5c0.4,0,0.6,0.3,0.6,0.7S24.2,21,23.8,21z"/>
		</g>
	</g>
</g>
<g>
	<g>
		<g>
			<path class="st0" d="M23.8,24.3H10.4c-0.4,0-0.6-0.3-0.6-0.7c0-0.4,0.3-0.7,0.6-0.7h13.5c0.4,0,0.6,0.3,0.6,0.7
				C24.5,24,24.2,24.3,23.8,24.3z"/>
		</g>
	</g>
</g>
<g>
	<g>
		<g>
			<path class="st0" d="M6.8,7.7c-0.4,0-0.6-0.3-0.6-0.7V4.6c0-1.6,1.3-3,3-3h7.9c0.4,0,0.6,0.3,0.6,0.7c0,0.4-0.3,0.7-0.6,0.7H9.2
				c-0.9,0-1.7,0.8-1.7,1.7v2.5C7.5,7.4,7.2,7.7,6.8,7.7z"/>
		</g>
	</g>
</g>
<g>
	<g>
		<g>
			<path class="st0" d="M25.1,29.5H9.2c-1.6,0-3-1.3-3-3v-13c0-0.4,0.3-0.7,0.6-0.7c0.4,0,0.6,0.3,0.6,0.7v13c0,0.9,0.8,1.7,1.7,1.7
				h15.9c0.9,0,1.7-0.8,1.7-1.7v-22c0-0.9-0.8-1.7-1.7-1.7H9.2c-0.4,0-0.6-0.3-0.6-0.7c0-0.4,0.3-0.7,0.6-0.7h15.9c1.6,0,3,1.3,3,3
				v22C28,28.2,26.7,29.5,25.1,29.5z"/>
		</g>
	</g>
</g>
<g>
	<g>
		<g>
			<path class="st0" d="M27.5,32H11.6c-1.6,0-3-1.3-3-3c0-0.4,0.3-0.7,0.6-0.7c0.4,0,0.6,0.3,0.6,0.7c0,0.9,0.8,1.7,1.7,1.7h15.9
				c0.9,0,1.7-0.8,1.7-1.7V7c0-0.9-0.8-1.7-1.7-1.7c-0.4,0-0.6-0.3-0.6-0.7c0-0.4,0.3-0.7,0.6-0.7c1.6,0,3,1.3,3,3v22
				C30.5,30.6,29.1,32,27.5,32z"/>
		</g>
	</g>
</g>
<g>
	<g>
		<g>
			<path class="st0" d="M29.9,34.3H14c-1.6,0-3-1.3-3-3c0-0.4,0.3-0.7,0.6-0.7s0.6,0.3,0.6,0.7c0,0.9,0.8,1.7,1.7,1.7h15.9
				c0.9,0,1.7-0.8,1.7-1.7v-22c0-0.9-0.8-1.7-1.7-1.7c-0.4,0-0.6-0.3-0.6-0.7s0.3-0.7,0.6-0.7c1.6,0,3,1.3,3,3v22
				C32.8,33,31.5,34.3,29.9,34.3z"/>
		</g>
	</g>
</g>
<g>
	<g>
		<g>
			<path class="st0" d="M32.2,36.7H16.3c-1.6,0-3-1.3-3-3c0-0.4,0.3-0.7,0.6-0.7c0.4,0,0.6,0.3,0.6,0.7c0,0.9,0.8,1.7,1.7,1.7h15.9
				c0.9,0,1.7-0.8,1.7-1.7v-22c0-0.9-0.8-1.7-1.7-1.7c-0.4,0-0.6-0.3-0.6-0.7s0.3-0.7,0.6-0.7c1.6,0,3,1.3,3,3v22
				C35.2,35.4,33.9,36.7,32.2,36.7z"/>
		</g>
	</g>
</g>
<g>
	<g>
		<g>
			<path class="st0" d="M18.3,14.3H4.8c-1.1,0-2-0.9-2-2v-4c0-1.1,0.9-2,2-2h13.5c1.1,0,2,0.9,2,2v4C20.3,13.4,19.4,14.3,18.3,14.3z
				 M4.8,7.8C4.5,7.8,4.2,8,4.2,8.3v4c0,0.3,0.3,0.6,0.6,0.6h13.5c0.3,0,0.6-0.3,0.6-0.6v-4c0-0.3-0.3-0.6-0.6-0.6H4.8z"/>
		</g>
	</g>
</g>
<g>
	<g>
		<g>
			<g>
				<path class="st0" d="M9.7,10.3c0,0.5-0.1,0.9-0.4,1.1c-0.3,0.3-0.7,0.4-1.2,0.4H7.2v-3h0.9C8.6,8.8,9,9,9.3,9.2
					C9.6,9.5,9.7,9.8,9.7,10.3z M9.2,10.3c0-0.7-0.3-1.1-1-1.1H7.7v2.2h0.4C8.8,11.4,9.2,11.1,9.2,10.3z"/>
			</g>
		</g>
	</g>
	<g>
		<g>
			<g>
				<path class="st0" d="M13,10.3c0,0.5-0.1,0.9-0.4,1.1c-0.2,0.3-0.6,0.4-1,0.4c-0.5,0-0.8-0.1-1.1-0.4c-0.2-0.3-0.4-0.7-0.4-1.2
					c0-0.5,0.1-0.9,0.4-1.1c0.2-0.3,0.6-0.4,1.1-0.4c0.4,0,0.8,0.1,1,0.4C12.9,9.5,13,9.8,13,10.3z M10.7,10.3
					c0,0.4,0.1,0.7,0.2,0.8c0.2,0.2,0.4,0.3,0.7,0.3c0.3,0,0.5-0.1,0.7-0.3c0.1-0.2,0.2-0.5,0.2-0.8c0-0.4-0.1-0.7-0.2-0.8
					c-0.1-0.2-0.4-0.3-0.7-0.3c-0.3,0-0.5,0.1-0.7,0.3C10.8,9.7,10.7,10,10.7,10.3z"/>
			</g>
		</g>
	</g>
	<g>
		<g>
			<g>
				<path class="st0" d="M15,9.2c-0.3,0-0.5,0.1-0.7,0.3C14.1,9.7,14,10,14,10.3c0,0.4,0.1,0.7,0.2,0.8c0.2,0.2,0.4,0.3,0.7,0.3
					c0.1,0,0.3,0,0.4,0c0.1,0,0.2-0.1,0.4-0.1v0.4c-0.2,0.1-0.5,0.1-0.8,0.1c-0.4,0-0.8-0.1-1-0.4c-0.2-0.3-0.4-0.7-0.4-1.2
					c0-0.3,0.1-0.6,0.2-0.8C13.8,9.3,14,9.1,14.2,9c0.2-0.1,0.5-0.2,0.8-0.2c0.3,0,0.6,0.1,0.9,0.2l-0.2,0.4c-0.1,0-0.2-0.1-0.3-0.1
					C15.2,9.2,15.1,9.2,15,9.2z"/>
			</g>
		</g>
	</g>
</g>
</svg>
