<?xml version="1.0" encoding="utf-8"?>
<!-- Generator: Adobe Illustrator 22.0.1, SVG Export Plug-In . SVG Version: 6.00 Build 0)  -->
<svg version="1.1" id="Слой_1" xmlns="http://www.w3.org/2000/svg" xmlns:xlink="http://www.w3.org/1999/xlink" x="0px" y="0px"
	 viewBox="0 0 38.3 38.3" style="enable-background:new 0 0 38.3 38.3;" xml:space="preserve">
<style type="text/css">
	.st0{fill:#FFFFFF;}
</style>
<g>
	<g>
		<path class="st0" d="M28.2,22.7c-4.4,0-7.9-3.5-7.9-7.9s3.5-7.9,7.9-7.9s7.9,3.5,7.9,7.9S32.6,22.7,28.2,22.7z M28.2,8.2
			c-3.6,0-6.6,3-6.6,6.6s3,6.6,6.6,6.6s6.6-3,6.6-6.6S31.9,8.2,28.2,8.2z"/>
	</g>
</g>
<g>
	<g>
		<path class="st0" d="M31,29.1H5.5c-0.8,0-1.4-0.6-1.4-1.4V13.4c0-0.8,0.6-1.4,1.4-1.4h15.8c0.4,0,0.6,0.3,0.6,0.6
			s-0.3,0.6-0.6,0.6H5.5c-0.1,0-0.1,0-0.1,0.1v14.4c0,0.1,0,0.1,0.1,0.1H31c0.1,0,0.1-0.1,0.1-0.1v-6.5c0-0.4,0.3-0.6,0.6-0.6
			c0.4,0,0.6,0.3,0.6,0.6v6.5C32.4,28.5,31.8,29.1,31,29.1z"/>
	</g>
</g>
<g>
	<g>
		<path class="st0" d="M18.3,23.5c-0.1,0-0.3,0-0.4-0.1L4.6,13.3c-0.3-0.2-0.3-0.6-0.1-0.9c0.2-0.3,0.6-0.3,0.9-0.1L18.3,22l4-3.1
			c0.3-0.2,0.7-0.2,0.9,0.1c0.2,0.3,0.2,0.7-0.1,0.9l-4.4,3.4C18.5,23.5,18.4,23.5,18.3,23.5z"/>
	</g>
</g>
<g>
	<g>
		<path class="st0" d="M5,28.9c-0.2,0-0.4-0.1-0.5-0.2c-0.2-0.3-0.2-0.7,0.1-0.9l6.5-5.4c0.3-0.2,0.7-0.2,0.9,0.1
			c0.2,0.3,0.2,0.7-0.1,0.9l-6.5,5.4C5.3,28.9,5.2,28.9,5,28.9z"/>
	</g>
</g>
<g>
	<g>
		<path class="st0" d="M31.5,28.9c-0.1,0-0.3,0-0.4-0.2l-6.5-5.4c-0.3-0.2-0.3-0.6-0.1-0.9c0.2-0.3,0.6-0.3,0.9-0.1l6.5,5.4
			c0.3,0.2,0.3,0.6,0.1,0.9C31.9,28.9,31.7,28.9,31.5,28.9z"/>
	</g>
</g>
<g>
	<g>
		<path class="st0" d="M27.5,17.7c-0.2,0-0.3-0.1-0.5-0.2L24.5,15c-0.3-0.3-0.3-0.7,0-0.9c0.3-0.3,0.7-0.3,0.9,0l2.1,2.1l3.9-3.9
			c0.3-0.3,0.7-0.3,0.9,0c0.3,0.3,0.3,0.7,0,0.9L28,17.5C27.9,17.6,27.7,17.7,27.5,17.7z"/>
	</g>
</g>
</svg>
