<?xml version="1.0" encoding="utf-8"?>
<!-- Generator: Adobe Illustrator 22.0.1, SVG Export Plug-In . SVG Version: 6.00 Build 0)  -->
<svg version="1.1" id="Слой_1" xmlns="http://www.w3.org/2000/svg" xmlns:xlink="http://www.w3.org/1999/xlink" x="0px" y="0px"
	 viewBox="0 0 38.3 38.3" style="enable-background:new 0 0 38.3 38.3;" xml:space="preserve">
<style type="text/css">
	.st0{fill:#FFFFFF;}
</style>
<g>
	<g>
		<path class="st0" d="M22.3,20.4c-0.3,0-0.6-0.1-0.9-0.4l-4.5-4.5c-0.5-0.5-0.5-1.2,0-1.7c0.5-0.5,1.2-0.5,1.7,0l4.5,4.5
			c0.5,0.5,0.5,1.2,0,1.7C22.9,20.2,22.6,20.4,22.3,20.4z"/>
	</g>
</g>
<g>
	<g>
		<path class="st0" d="M17.7,24.9c-0.3,0-0.6-0.1-0.9-0.4c-0.5-0.5-0.5-1.2,0-1.7l4.5-4.5c0.5-0.5,1.2-0.5,1.7,0
			c0.5,0.5,0.5,1.2,0,1.7l-4.5,4.5C18.3,24.8,18,24.9,17.7,24.9z"/>
	</g>
</g>
</svg>
