<?xml version="1.0" encoding="utf-8"?>
<!-- Generator: Adobe Illustrator 22.0.1, SVG Export Plug-In . SVG Version: 6.00 Build 0)  -->
<svg version="1.1" id="Слой_1" xmlns="http://www.w3.org/2000/svg" xmlns:xlink="http://www.w3.org/1999/xlink" x="0px" y="0px"
	 viewBox="0 0 14.8 11" style="enable-background:new 0 0 14.8 11;" xml:space="preserve">
<style type="text/css">
	.st0{fill:#FFFFFF;}
</style>
<g>
	<g>
		<path class="st0" d="M14.1,1.3H0.7C0.3,1.3,0,1,0,0.6C0,0.3,0.3,0,0.7,0h13.5c0.4,0,0.7,0.3,0.7,0.6C14.8,1,14.5,1.3,14.1,1.3z"/>
	</g>
</g>
<g>
	<g>
		<path class="st0" d="M14.1,6.2H0.7C0.3,6.2,0,5.9,0,5.5s0.3-0.6,0.7-0.6h13.5c0.4,0,0.7,0.3,0.7,0.6S14.5,6.2,14.1,6.2z"/>
	</g>
</g>
<g>
	<g>
		<path class="st0" d="M14.1,11H0.7C0.3,11,0,10.7,0,10.4s0.3-0.6,0.7-0.6h13.5c0.4,0,0.7,0.3,0.7,0.6S14.5,11,14.1,11z"/>
	</g>
</g>
</svg>
