<?xml version="1.0" encoding="utf-8"?>
<!-- Generator: Adobe Illustrator 22.0.1, SVG Export Plug-In . SVG Version: 6.00 Build 0)  -->
<svg version="1.1" id="Слой_1" xmlns="http://www.w3.org/2000/svg" xmlns:xlink="http://www.w3.org/1999/xlink" x="0px" y="0px"
	 viewBox="0 0 38.3 38.3" style="enable-background:new 0 0 38.3 38.3;" xml:space="preserve">
<style type="text/css">
	.st0{fill:#FFFFFF;}
</style>
<g>
	<g>
		<path class="st0" d="M33.1,9h-28c-1,0-1.9-0.8-1.9-1.9s0.8-1.9,1.9-1.9h28c1,0,1.9,0.8,1.9,1.9S34.2,9,33.1,9z M5.2,6.6
			c-0.3,0-0.6,0.3-0.6,0.6c0,0.3,0.3,0.6,0.6,0.6h28c0.3,0,0.6-0.3,0.6-0.6c0-0.3-0.3-0.6-0.6-0.6H5.2z"/>
	</g>
</g>
<g>
	<g>
		<path class="st0" d="M29.6,27.4H8.7c-2.2,0-3.9-1.8-3.9-3.9V8.3c0-0.4,0.3-0.6,0.6-0.6h27.4c0.4,0,0.6,0.3,0.6,0.6v15.2
			C33.5,25.7,31.8,27.4,29.6,27.4z M6.1,9v14.5c0,1.4,1.2,2.6,2.6,2.6h20.9c1.4,0,2.6-1.2,2.6-2.6V9H6.1z"/>
	</g>
</g>
<g>
	<g>
		<path class="st0" d="M9.8,25c-1.3,0-2.4-1.1-2.4-2.4c0-1.3,1.1-2.4,2.4-2.4c1.3,0,2.4,1.1,2.4,2.4C12.1,24,11.1,25,9.8,25z
			 M9.8,21.6c-0.6,0-1.1,0.5-1.1,1.1c0,0.6,0.5,1.1,1.1,1.1c0.6,0,1.1-0.5,1.1-1.1C10.8,22.1,10.4,21.6,9.8,21.6z"/>
	</g>
</g>
<g>
	<g>
		<path class="st0" d="M22.4,25c-1.3,0-2.4-1.1-2.4-2.4c0-1.3,1.1-2.4,2.4-2.4c1.3,0,2.4,1.1,2.4,2.4C24.8,24,23.7,25,22.4,25z
			 M22.4,21.6c-0.6,0-1.1,0.5-1.1,1.1c0,0.6,0.5,1.1,1.1,1.1c0.6,0,1.1-0.5,1.1-1.1C23.5,22.1,23,21.6,22.4,21.6z"/>
	</g>
</g>
<g>
	<g>
		<path class="st0" d="M28.7,18.2c-1.3,0-2.4-1.1-2.4-2.4c0-1.3,1.1-2.4,2.4-2.4c1.3,0,2.4,1.1,2.4,2.4C31,17.1,30,18.2,28.7,18.2z
			 M28.7,14.8c-0.6,0-1.1,0.5-1.1,1.1c0,0.6,0.5,1.1,1.1,1.1c0.6,0,1.1-0.5,1.1-1.1C29.7,15.3,29.3,14.8,28.7,14.8z"/>
	</g>
</g>
<g>
	<g>
		<path class="st0" d="M18,18.4c-0.2,0-0.4-0.1-0.6-0.2l-1.3-0.9l-1.3,0.9c-0.4,0.3-0.8,0.3-1.2,0c-0.4-0.3-0.5-0.7-0.4-1.1l0.5-1.5
			l-1.3-0.9c-0.4-0.3-0.5-0.7-0.4-1.1c0.1-0.4,0.5-0.7,1-0.7h1.5l0.5-1.5c0.1-0.4,0.5-0.7,1-0.7c0.4,0,0.8,0.3,1,0.7l0,0l0.5,1.5
			h1.5c0.4,0,0.8,0.3,1,0.7c0.1,0.4,0,0.9-0.4,1.1l-1.3,0.9l0.5,1.5c0.1,0.4,0,0.9-0.4,1.1C18.4,18.3,18.2,18.4,18,18.4z M14,14.1
			l0.7,0.5c0.4,0.3,0.5,0.7,0.4,1.1l-0.3,0.9l0.7-0.5c0.4-0.3,0.8-0.3,1.2,0l0.7,0.5l-0.3-0.9c-0.1-0.4,0-0.9,0.4-1.1l0.7-0.5h-0.9
			c-0.4,0-0.8-0.3-1-0.7l-0.3-0.9l-0.3,0.9c-0.1,0.4-0.5,0.7-1,0.7H14z M17.6,13L17.6,13L17.6,13z"/>
	</g>
</g>
<g>
	<g>
		<path class="st0" d="M10.9,22c-0.1,0-0.3,0-0.4-0.2c-0.3-0.2-0.3-0.6-0.1-0.9l3.1-3.8c0.2-0.3,0.6-0.3,0.9-0.1
			c0.3,0.2,0.3,0.6,0.1,0.9l-3.1,3.8C11.2,21.9,11.1,22,10.9,22z"/>
	</g>
</g>
<g>
	<g>
		<path class="st0" d="M21.4,22c-0.2,0-0.4-0.1-0.5-0.2L17.8,18c-0.2-0.3-0.2-0.7,0.1-0.9c0.3-0.2,0.7-0.2,0.9,0.1l3.1,3.8
			c0.2,0.3,0.2,0.7-0.1,0.9C21.7,22,21.5,22,21.4,22z"/>
	</g>
</g>
<g>
	<g>
		<path class="st0" d="M23.6,22.1c-0.2,0-0.3-0.1-0.4-0.2c-0.3-0.2-0.3-0.7,0-0.9l3.9-4.3c0.2-0.3,0.7-0.3,0.9,0
			c0.3,0.2,0.3,0.7,0,0.9l-3.9,4.3C23.9,22,23.8,22.1,23.6,22.1z"/>
	</g>
</g>
<g>
	<g>
		<path class="st0" d="M31.3,11.4h-7.9c-0.4,0-0.6-0.3-0.6-0.6s0.3-0.6,0.6-0.6h7.9c0.4,0,0.6,0.3,0.6,0.6S31.7,11.4,31.3,11.4z"/>
	</g>
</g>
<g>
	<g>
		<path class="st0" d="M19.8,35.2c-1,0-1.7-0.8-1.7-1.7c0-1,0.8-1.7,1.7-1.7c1,0,1.7,0.8,1.7,1.7C21.6,34.4,20.8,35.2,19.8,35.2z
			 M19.8,33c-0.2,0-0.4,0.2-0.4,0.4c0,0.2,0.2,0.4,0.4,0.4c0.2,0,0.4-0.2,0.4-0.4C20.3,33.2,20.1,33,19.8,33z"/>
	</g>
</g>
<g>
	<g>
		<path class="st0" d="M19.8,33c-0.4,0-0.6-0.3-0.6-0.6v-5.6c0-0.4,0.3-0.6,0.6-0.6s0.6,0.3,0.6,0.6v5.6C20.5,32.7,20.2,33,19.8,33z
			"/>
	</g>
</g>
</svg>
