<?xml version="1.0" encoding="utf-8"?>
<!-- Generator: Adobe Illustrator 22.0.1, SVG Export Plug-In . SVG Version: 6.00 Build 0)  -->
<svg version="1.1" id="Слой_1" xmlns="http://www.w3.org/2000/svg" xmlns:xlink="http://www.w3.org/1999/xlink" x="0px" y="0px"
	 viewBox="0 0 38.3 38.3" style="enable-background:new 0 0 38.3 38.3;" xml:space="preserve">
<style type="text/css">
	.st0{fill:#FFFFFF;}
</style>
<g>
	<g>
		<path class="st0" d="M19.6,35.4c-0.1,0-0.2,0-0.3-0.1C19.1,35.2,19,35,19,34.7V20.2c0-0.2,0.1-0.4,0.3-0.6l12.4-7.3
			c0.2-0.1,0.4-0.1,0.7,0c0.2,0.1,0.3,0.3,0.3,0.6v14.5c0,0.2-0.1,0.4-0.3,0.6L20,35.3C19.9,35.4,19.8,35.4,19.6,35.4z M20.3,20.6
			v13l11.1-6.5v-13L20.3,20.6z"/>
	</g>
</g>
<g>
	<g>
		<path class="st0" d="M19.6,35.4c-0.1,0-0.2,0-0.3-0.1L6.9,28c-0.2-0.1-0.3-0.3-0.3-0.6V12.9c0-0.2,0.1-0.4,0.3-0.6
			c0.2-0.1,0.5-0.1,0.7,0L20,19.6c0.2,0.1,0.3,0.3,0.3,0.6v14.5c0,0.2-0.1,0.4-0.3,0.6C19.9,35.4,19.8,35.4,19.6,35.4z M7.9,27.1
			L19,33.6v-13L7.9,14.1V27.1z"/>
	</g>
</g>
<g>
	<g>
		<path class="st0" d="M19.6,20.9c-0.1,0-0.2,0-0.3-0.1L6.9,13.5c-0.2-0.1-0.3-0.3-0.3-0.6c0-0.2,0.1-0.4,0.3-0.6l12.4-7.3
			C19.5,5,19.8,5,20,5.1l12.4,7.3c0.2,0.1,0.3,0.3,0.3,0.6c0,0.2-0.1,0.4-0.3,0.6L20,20.8C19.9,20.8,19.8,20.9,19.6,20.9z M8.5,12.9
			l11.1,6.5l11.1-6.5L19.6,6.4L8.5,12.9z"/>
	</g>
</g>
</svg>
