<?xml version="1.0" encoding="utf-8"?>
<!-- Generator: Adobe Illustrator 22.0.1, SVG Export Plug-In . SVG Version: 6.00 Build 0)  -->
<svg version="1.1" id="Слой_1" xmlns="http://www.w3.org/2000/svg" xmlns:xlink="http://www.w3.org/1999/xlink" x="0px" y="0px"
	 viewBox="0 0 38.3 38.3" style="enable-background:new 0 0 38.3 38.3;" xml:space="preserve">
<style type="text/css">
	.st0{fill:#FFFFFF;}
</style>
<g>
	<g>
		<path class="st0" d="M34.9,35.1h-1.5V13.5c0-1-0.8-1.8-1.8-1.8h-3.3c-1,0-1.8,0.8-1.8,1.8v21.6h-3.8V23.3c0-1-0.8-1.8-1.8-1.8
			h-3.3c-1,0-1.8,0.8-1.8,1.8v11.8h-3.8V29c0-1-0.8-1.8-1.8-1.8H6.8c-1,0-1.8,0.8-1.8,1.8v6.1H3.4c-0.4,0-0.7,0.3-0.7,0.7
			c0,0.4,0.3,0.7,0.7,0.7h31.6c0.4,0,0.7-0.3,0.7-0.7C35.6,35.4,35.3,35.1,34.9,35.1z M6.3,35.1V29c0-0.3,0.2-0.5,0.5-0.5h3.3
			c0.3,0,0.5,0.2,0.5,0.5v6.1H6.3z M17.1,35.1V23.3c0-0.3,0.2-0.5,0.5-0.5h3.3c0.3,0,0.5,0.2,0.5,0.5v11.8H17.1z M27.8,35.1V13.5
			c0-0.3,0.2-0.5,0.5-0.5h3.3c0.3,0,0.5,0.2,0.5,0.5v21.6H27.8z"/>
	</g>
</g>
<g>
	<g>
		<path class="st0" d="M9.2,20.6c0.2,0,0.3-0.1,0.5-0.2L21.4,8.7l2.5,2.5c0.3,0.3,0.7,0.3,1,0L32.1,4v2.3c0,0.4,0.3,0.7,0.7,0.7
			c0.4,0,0.7-0.3,0.7-0.7V2.5c0,0,0,0,0,0c0-0.2-0.1-0.4-0.2-0.5c-0.1-0.1-0.3-0.2-0.5-0.2c0,0,0,0,0,0h-4.1c-0.4,0-0.7,0.3-0.7,0.7
			c0,0.4,0.3,0.7,0.7,0.7h2.5l-6.7,6.7l-2.5-2.5c-0.1-0.1-0.3-0.2-0.5-0.2c-0.2,0-0.4,0.1-0.5,0.2L8.7,19.5c-0.3,0.3-0.3,0.7,0,1
			C8.9,20.6,9,20.6,9.2,20.6z"/>
	</g>
</g>
<g>
	<g>
		<path class="st0" d="M6.9,21.6c0.4,0,0.7,0.3,0.7,0.7c0,0.4-0.3,0.7-0.7,0.7c-0.4,0-0.7-0.3-0.7-0.7C6.2,21.9,6.5,21.6,6.9,21.6z"
			/>
	</g>
</g>
</svg>
