<?xml version="1.0" encoding="utf-8"?>
<!-- Generator: Adobe Illustrator 22.0.1, SVG Export Plug-In . SVG Version: 6.00 Build 0)  -->
<svg version="1.1" id="Слой_1" xmlns="http://www.w3.org/2000/svg" xmlns:xlink="http://www.w3.org/1999/xlink" x="0px" y="0px"
	 viewBox="0 0 38.3 38.3" style="enable-background:new 0 0 38.3 38.3;" xml:space="preserve">
<style type="text/css">
	.st0{fill:#FFFFFF;}
</style>
<g>
	<g>
		<path class="st0" d="M25.1,27.5c-0.1,0.2-0.3,0.3-0.5,0.2l-1.3-0.6c-0.2-0.1-0.5,0-0.7,0.2c-0.6,0.9-1.4,1.7-2.3,2.3
			c-0.2,0.1-0.3,0.4-0.2,0.7l0.6,1.3c0.1,0.2,0,0.4-0.2,0.5L19,32.8c-0.2,0.1-0.4,0-0.5-0.2L18,31.2c-0.1-0.2-0.3-0.4-0.6-0.3
			c-1.1,0.2-2.1,0.2-3.2,0c-0.2,0-0.5,0.1-0.6,0.3L13,32.5c-0.1,0.2-0.3,0.3-0.5,0.2L11,32.2c-0.1,0-0.2-0.1-0.2-0.2
			c0-0.1,0-0.2,0-0.3l0.6-1.3c0.1-0.2,0-0.5-0.2-0.7c-0.9-0.6-1.7-1.4-2.3-2.3c-0.1-0.2-0.4-0.3-0.7-0.2l-1.3,0.6
			c-0.2,0.1-0.4,0-0.5-0.2l-0.6-1.5c-0.1-0.2,0-0.4,0.2-0.5L7.3,25c0.2-0.1,0.4-0.3,0.3-0.6c-0.2-1.1-0.2-2.1,0-3.2
			c0-0.2-0.1-0.5-0.3-0.6L6,20c-0.1,0-0.2-0.1-0.2-0.2c0-0.1,0-0.2,0-0.3L6.4,18c0-0.1,0.1-0.2,0.2-0.2c0.1,0,0.2,0,0.3,0l1.3,0.6
			c0.2,0.1,0.5,0,0.7-0.2c0.6-0.9,1.4-1.7,2.3-2.3c0.2-0.1,0.3-0.4,0.2-0.7l-0.6-1.3c0-0.1,0-0.2,0-0.3c0-0.1,0.1-0.2,0.2-0.2
			l1.5-0.6c0.2-0.1,0.4,0,0.5,0.2l0.6,1.3c0.1,0.3,0.4,0.4,0.7,0.3c0.3-0.1,0.4-0.4,0.3-0.7L14,12.6c-0.3-0.8-1.2-1.1-1.9-0.8
			l-1.5,0.6c-0.4,0.1-0.6,0.4-0.8,0.8c-0.1,0.4-0.1,0.8,0,1.1l0.4,0.9c-0.7,0.6-1.4,1.2-2,2l-0.9-0.4c-0.4-0.1-0.8-0.1-1.1,0
			c-0.4,0.1-0.6,0.4-0.8,0.8l-0.6,1.5c-0.1,0.4-0.1,0.8,0,1.1c0.1,0.4,0.4,0.6,0.8,0.8l0.9,0.4c-0.1,0.9-0.1,1.8,0,2.8l-0.9,0.4
			c-0.8,0.3-1.1,1.2-0.8,1.9l0.6,1.4c0.3,0.8,1.2,1.1,1.9,0.8l0.9-0.4c0.6,0.7,1.2,1.4,2,2l-0.4,0.9c-0.1,0.4-0.1,0.8,0,1.1
			c0.1,0.4,0.4,0.6,0.8,0.8l1.5,0.6c0.8,0.3,1.6,0,1.9-0.8l0.4-0.9c0.9,0.1,1.8,0.1,2.8,0l0.4,0.9c0.2,0.6,0.8,0.9,1.4,0.9
			c0.2,0,0.4,0,0.6-0.1l1.5-0.6c0.8-0.3,1.1-1.2,0.8-1.9l-0.4-0.9c0.7-0.6,1.4-1.2,2-2l0.9,0.4c0.8,0.3,1.6,0,1.9-0.8l0.6-1.5
			c0.1-0.4,0.1-0.8,0-1.1c-0.1-0.4-0.4-0.6-0.8-0.8L24.6,24c-0.3-0.1-0.6,0-0.7,0.3c-0.1,0.3,0,0.6,0.3,0.7l1.3,0.6
			c0.1,0,0.2,0.1,0.2,0.2c0,0.1,0,0.2,0,0.3L25.1,27.5z M25.1,27.5"/>
	</g>
</g>
<g>
	<g>
		<path class="st0" d="M15.7,19.1c0.3,0,0.5-0.2,0.5-0.5c0-0.3-0.2-0.5-0.5-0.5h0c-1.3,0-2.4,0.5-3.3,1.4c-0.9,0.9-1.4,2.1-1.4,3.4
			c0,1.3,0.5,2.4,1.4,3.3c0.9,0.9,2.1,1.4,3.3,1.4h0c1.3,0,2.4-0.5,3.3-1.4c0.9-0.9,1.4-2.1,1.4-3.4c0-0.3-0.2-0.5-0.5-0.5h0
			c-0.3,0-0.5,0.2-0.5,0.5c0,1-0.4,1.9-1.1,2.6c-0.7,0.7-1.6,1.1-2.6,1.1h0c-1,0-1.9-0.4-2.6-1.1c-0.7-0.7-1.1-1.6-1.1-2.6
			c0-1,0.4-1.9,1.1-2.6C13.8,19.5,14.8,19.1,15.7,19.1L15.7,19.1z M15.7,19.1"/>
	</g>
</g>
<g>
	<g>
		<path class="st0" d="M32.4,15.5c0.7,0,1.2-0.5,1.2-1.2v-1.1c0-0.7-0.5-1.2-1.2-1.2h-0.6c-0.2-0.6-0.4-1.2-0.7-1.7l0.4-0.4
			C32,9.3,32,8.5,31.6,8l-0.8-0.8c-0.2-0.2-0.5-0.4-0.9-0.4c-0.3,0-0.6,0.1-0.9,0.4l-0.4,0.4c-0.5-0.3-1.1-0.5-1.7-0.7V6.3
			c0-0.7-0.5-1.2-1.2-1.2h-1.1c-0.7,0-1.2,0.5-1.2,1.2V7c-0.6,0.2-1.2,0.4-1.7,0.7l-0.4-0.4C21,7,20.7,6.9,20.3,6.9
			c-0.3,0-0.6,0.1-0.9,0.4L18.7,8c-0.5,0.5-0.5,1.2,0,1.7l0.4,0.4c-0.3,0.5-0.5,1.1-0.7,1.7h-0.6c-0.7,0-1.2,0.5-1.2,1.2v1.1
			c0,0.7,0.5,1.2,1.2,1.2h0.6c0.2,0.6,0.4,1.2,0.7,1.7l-0.4,0.4c-0.5,0.5-0.5,1.2,0,1.7l0.8,0.8c0.2,0.2,0.5,0.4,0.9,0.4
			c0.3,0,0.6-0.1,0.9-0.4l0.4-0.4c0.5,0.3,1.1,0.5,1.7,0.7V21c0,0.7,0.5,1.2,1.2,1.2h1.1c0.7,0,1.2-0.5,1.2-1.2v-0.6
			c0.6-0.2,1.2-0.4,1.7-0.7l0.4,0.4c0.2,0.2,0.5,0.4,0.9,0.4c0.3,0,0.6-0.1,0.9-0.4l0.8-0.8c0.5-0.5,0.5-1.2,0-1.7l-0.4-0.4
			c0.3-0.5,0.5-1.1,0.7-1.7H32.4z M30.9,14.8c-0.1,0.8-0.4,1.5-0.9,2.1c-0.1,0.2-0.1,0.5,0.1,0.7l0.7,0.7c0.1,0.1,0.1,0.1,0,0.2
			L30,19.4c0,0-0.1,0-0.1,0c0,0-0.1,0-0.1,0L29,18.6c-0.2-0.2-0.5-0.2-0.7-0.1c-0.6,0.4-1.4,0.7-2.1,0.9c-0.2,0-0.4,0.3-0.4,0.5V21
			c0,0.1-0.1,0.1-0.1,0.1h-1.1c-0.1,0-0.1-0.1-0.1-0.1V20c0-0.3-0.2-0.5-0.4-0.5c-0.8-0.1-1.5-0.4-2.1-0.9c-0.1-0.1-0.2-0.1-0.3-0.1
			c-0.1,0-0.3,0.1-0.4,0.2l-0.7,0.7c0,0-0.1,0-0.1,0c0,0-0.1,0-0.1,0l-0.8-0.8c-0.1-0.1-0.1-0.1,0-0.2l0.7-0.7
			c0.2-0.2,0.2-0.5,0.1-0.7c-0.4-0.6-0.7-1.4-0.9-2.1c0-0.2-0.3-0.4-0.5-0.4h-1.1c-0.1,0-0.1-0.1-0.1-0.1v-1.2
			c0-0.1,0.1-0.1,0.1-0.1h1.1c0.3,0,0.5-0.2,0.5-0.4c0.1-0.8,0.4-1.5,0.9-2.1c0.1-0.2,0.1-0.5-0.1-0.7L19.4,9c0,0,0-0.1,0-0.1
			c0,0,0-0.1,0-0.1L20.2,8c0,0,0.1,0,0.1,0c0,0,0.1,0,0.1,0l0.7,0.7c0.2,0.2,0.5,0.2,0.7,0.1c0.6-0.4,1.4-0.7,2.1-0.9
			c0.2,0,0.4-0.3,0.4-0.5v-1c0-0.1,0.1-0.1,0.1-0.1h1.1c0.1,0,0.1,0.1,0.1,0.1v1.1c0,0.3,0.2,0.5,0.4,0.5c0.8,0.1,1.5,0.4,2.1,0.9
			c0.2,0.1,0.5,0.1,0.7-0.1L29.8,8c0,0,0.1,0,0.1,0c0,0,0.1,0,0.1,0l0.8,0.8c0.1,0.1,0.1,0.1,0,0.2l-0.7,0.7
			c-0.2,0.2-0.2,0.5-0.1,0.7c0.4,0.6,0.7,1.4,0.9,2.1c0,0.2,0.3,0.4,0.5,0.4h1.1c0.1,0,0.1,0.1,0.1,0.1v1.1c0,0.1-0.1,0.1-0.1,0.1
			h-1.1C31.1,14.4,30.9,14.6,30.9,14.8L30.9,14.8z M30.9,14.8"/>
	</g>
</g>
<g>
	<g>
		<path class="st0" d="M25.1,10.2c-1.9,0-3.4,1.5-3.4,3.4c0,1.9,1.5,3.4,3.4,3.4c1.9,0,3.4-1.5,3.4-3.4C28.6,11.8,27,10.2,25.1,10.2
			L25.1,10.2z M25.1,16c-1.3,0-2.4-1.1-2.4-2.4s1.1-2.4,2.4-2.4c1.3,0,2.4,1.1,2.4,2.4S26.4,16,25.1,16L25.1,16z M25.1,16"/>
	</g>
</g>
</svg>
