<?xml version="1.0" encoding="utf-8"?>
<!-- Generator: Adobe Illustrator 22.0.1, SVG Export Plug-In . SVG Version: 6.00 Build 0)  -->
<svg version="1.1" id="Слой_1" xmlns="http://www.w3.org/2000/svg" xmlns:xlink="http://www.w3.org/1999/xlink" x="0px" y="0px"
	 viewBox="0 0 38.3 38.3" style="enable-background:new 0 0 38.3 38.3;" xml:space="preserve">
<style type="text/css">
	.st0{fill:#FFFFFF;}
</style>
<g>
	<g>
		<path class="st0" d="M18.2,12.4c-1.4,0-2.6-1.2-2.6-2.6c0-1.4,1.2-2.6,2.6-2.6c1.4,0,2.6,1.2,2.6,2.6
			C20.8,11.3,19.6,12.4,18.2,12.4z M18.2,8.5c-0.7,0-1.3,0.6-1.3,1.3c0,0.7,0.6,1.3,1.3,1.3c0.7,0,1.3-0.6,1.3-1.3
			C19.5,9.1,18.9,8.5,18.2,8.5z"/>
	</g>
</g>
<g>
	<g>
		<path class="st0" d="M20.8,18.2h-6.5c-0.4,0-0.6-0.3-0.6-0.6c0-2.5,2.1-4.6,4.6-4.6c2,0,3.8,1.3,4.3,3.3c0.1,0.3-0.1,0.7-0.4,0.8
			c-0.3,0.1-0.7-0.1-0.8-0.4c-0.4-1.4-1.7-2.3-3.1-2.3c-1.6,0-2.9,1.1-3.2,2.6h5.8c0.4,0,0.6,0.3,0.6,0.6
			C21.4,17.9,21.1,18.2,20.8,18.2z"/>
	</g>
</g>
<g>
	<g>
		<path class="st0" d="M24.8,23.8H11.3c-0.4,0-0.6-0.3-0.6-0.6s0.3-0.6,0.6-0.6h13.5c0.4,0,0.6,0.3,0.6,0.6S25.2,23.8,24.8,23.8z"/>
	</g>
</g>
<g>
	<g>
		<path class="st0" d="M24.8,27.1H11.3c-0.4,0-0.6-0.3-0.6-0.6s0.3-0.6,0.6-0.6h13.5c0.4,0,0.6,0.3,0.6,0.6S25.2,27.1,24.8,27.1z"/>
	</g>
</g>
<g>
	<g>
		<path class="st0" d="M26,32.5H10.1c-1.6,0-3-1.3-3-3v-22c0-1.6,1.3-3,3-3H26c1.6,0,3,1.3,3,3v22C29,31.2,27.6,32.5,26,32.5z
			 M18.1,31.2H26c0.9,0,1.7-0.8,1.7-1.7v-22c0-0.9-0.8-1.7-1.7-1.7H10.1c-0.9,0-1.7,0.8-1.7,1.7v22c0,0.9,0.8,1.7,1.7,1.7H18.1z"/>
	</g>
</g>
<g>
	<g>
		<path class="st0" d="M28.4,35H12.6c-1.6,0-3-1.3-3-3c0-0.4,0.3-0.6,0.6-0.6c0.4,0,0.6,0.3,0.6,0.6c0,0.9,0.8,1.7,1.7,1.7h15.9
			c0.9,0,1.7-0.8,1.7-1.7V10c0-0.9-0.8-1.7-1.7-1.7c-0.4,0-0.6-0.3-0.6-0.7c0-0.4,0.3-0.6,0.6-0.6c1.6,0,3,1.3,3,3v22
			C31.4,33.7,30.1,35,28.4,35z"/>
	</g>
</g>
</svg>
