<?xml version="1.0" encoding="utf-8"?>
<!-- Generator: Adobe Illustrator 22.0.1, SVG Export Plug-In . SVG Version: 6.00 Build 0)  -->
<svg version="1.1" id="Слой_1" xmlns="http://www.w3.org/2000/svg" xmlns:xlink="http://www.w3.org/1999/xlink" x="0px" y="0px"
	 viewBox="0 0 38.3 38.3" style="enable-background:new 0 0 38.3 38.3;" xml:space="preserve">
<style type="text/css">
	.st0{fill:#FFFFFF;}
</style>
<g>
	<g>
		<path class="st0" d="M18,22.4H5.6c-1.3,0-2.4-1.1-2.4-2.4V7.6c0-1.3,1.1-2.4,2.4-2.4H18c1.3,0,2.4,1.1,2.4,2.4V20
			C20.4,21.3,19.3,22.4,18,22.4z M5.6,6.6C5,6.6,4.5,7,4.5,7.6V20c0,0.6,0.5,1.1,1.1,1.1H18c0.6,0,1.1-0.5,1.1-1.1V7.6
			c0-0.6-0.5-1.1-1.1-1.1H5.6z"/>
	</g>
</g>
<g>
	<g>
		<path class="st0" d="M30.8,35.2H18.4c-1.3,0-2.4-1.1-2.4-2.4v-11c0-0.4,0.3-0.6,0.6-0.6c0.4,0,0.6,0.3,0.6,0.6v11
			c0,0.6,0.5,1.1,1.1,1.1h12.4c0.6,0,1.1-0.5,1.1-1.1V20.4c0-0.6-0.5-1.1-1.1-1.1h-11c-0.4,0-0.6-0.3-0.6-0.6c0-0.4,0.3-0.6,0.6-0.6
			h11c1.3,0,2.4,1.1,2.4,2.4v12.4C33.1,34.1,32.1,35.2,30.8,35.2z"/>
	</g>
</g>
<g>
	<g>
		<path class="st0" d="M21.5,32c-0.1,0-0.1,0-0.2,0c-0.3-0.1-0.5-0.5-0.4-0.8l3.1-8.7c0.1-0.3,0.5-0.5,0.8-0.4
			c0.3,0.1,0.5,0.5,0.4,0.8l-3.1,8.7C22,31.8,21.7,32,21.5,32z"/>
	</g>
</g>
<g>
	<g>
		<path class="st0" d="M27.7,32c-0.3,0-0.5-0.2-0.6-0.4l-3.1-8.7c-0.1-0.3,0.1-0.7,0.4-0.8c0.3-0.1,0.7,0.1,0.8,0.4l3.1,8.7
			c0.1,0.3-0.1,0.7-0.4,0.8C27.8,32,27.7,32,27.7,32z"/>
	</g>
</g>
<g>
	<g>
		<path class="st0" d="M26.7,29.2h-4.2c-0.4,0-0.6-0.3-0.6-0.6s0.3-0.6,0.6-0.6h4.2c0.4,0,0.6,0.3,0.6,0.6S27,29.2,26.7,29.2z"/>
	</g>
</g>
<g>
	<g>
		<path class="st0" d="M16.6,11.8H7.1c-0.4,0-0.6-0.3-0.6-0.6c0-0.4,0.3-0.6,0.6-0.6h9.6c0.4,0,0.6,0.3,0.6,0.6
			C17.3,11.6,17,11.8,16.6,11.8z"/>
	</g>
</g>
<g>
	<g>
		<path class="st0" d="M11.9,11.8c-0.4,0-0.6-0.3-0.6-0.6V7.9c0-0.4,0.3-0.6,0.6-0.6s0.6,0.3,0.6,0.6v3.3
			C12.5,11.6,12.2,11.8,11.9,11.8z"/>
	</g>
</g>
<g>
	<g>
		<path class="st0" d="M7.1,18.9c-0.4,0-0.6-0.3-0.6-0.6c0-0.4,0.3-0.6,0.6-0.6c3.5,0,6.4-2.9,6.4-6.4c0-0.4,0.3-0.6,0.6-0.6
			c0.4,0,0.6,0.3,0.6,0.6C14.7,15.5,11.3,18.9,7.1,18.9z"/>
	</g>
</g>
<g>
	<g>
		<path class="st0" d="M16.5,18.9c-4.2,0-7.7-3.4-7.7-7.7c0-0.4,0.3-0.6,0.6-0.6c0.4,0,0.6,0.3,0.6,0.6c0,3.5,2.9,6.4,6.4,6.4
			c0.4,0,0.6,0.3,0.6,0.6C17.2,18.6,16.9,18.9,16.5,18.9z"/>
	</g>
</g>
<g>
	<g>
		<path class="st0" d="M13.6,35.2c-5.7,0-10.4-4.7-10.4-10.4c0-0.4,0.3-0.6,0.6-0.6h3.3c0.4,0,0.6,0.3,0.6,0.6s-0.3,0.6-0.6,0.6H4.5
			c0.3,4.7,4.3,8.4,9.1,8.4c0.4,0,0.6,0.3,0.6,0.6C14.3,34.9,14,35.2,13.6,35.2z"/>
	</g>
</g>
<g>
	<g>
		<path class="st0" d="M32.5,16.3h-3.3c-0.4,0-0.6-0.3-0.6-0.6s0.3-0.6,0.6-0.6h2.6c-0.3-4.7-4.3-8.4-9.1-8.4
			c-0.4,0-0.6-0.3-0.6-0.6c0-0.4,0.3-0.6,0.6-0.6c5.7,0,10.4,4.7,10.4,10.4C33.1,16,32.8,16.3,32.5,16.3z"/>
	</g>
</g>
</svg>
