<?xml version="1.0" encoding="utf-8"?>
<!-- Generator: Adobe Illustrator 22.0.1, SVG Export Plug-In . SVG Version: 6.00 Build 0)  -->
<svg version="1.1" id="Слой_1" xmlns="http://www.w3.org/2000/svg" xmlns:xlink="http://www.w3.org/1999/xlink" x="0px" y="0px"
	 viewBox="0 0 38.3 38.3" style="enable-background:new 0 0 38.3 38.3;" xml:space="preserve">
<style type="text/css">
	.st0{fill:#FFFFFF;}
</style>
<g>
	<g>
		<path class="st0" d="M17.2,20.3c-1.8,0-3.3-1.5-3.3-3.3s1.5-3.3,3.3-3.3c0.4,0,0.6,0.3,0.6,0.6S17.5,15,17.2,15c-1.1,0-2,0.9-2,2
			s0.9,2,2,2c0.4,0,0.6,0.3,0.6,0.6S17.5,20.3,17.2,20.3z"/>
	</g>
</g>
<g>
	<g>
		<path class="st0" d="M21.2,25.6c-0.4,0-0.6-0.3-0.6-0.7c0-0.4,0.3-0.6,0.6-0.6c1.1,0,2-0.9,2-2c0-1.1-0.9-2-2-2
			c-0.4,0-0.6-0.3-0.6-0.6s0.3-0.6,0.6-0.6c1.8,0,3.3,1.5,3.3,3.3C24.5,24.1,23,25.6,21.2,25.6z"/>
	</g>
</g>
<g>
	<g>
		<path class="st0" d="M22.5,15h-5.3c-0.4,0-0.6-0.3-0.6-0.6s0.3-0.6,0.6-0.6h5.3c0.4,0,0.6,0.3,0.6,0.6S22.8,15,22.5,15z"/>
	</g>
</g>
<g>
	<g>
		<path class="st0" d="M21.2,25.6h-5.3c-0.4,0-0.6-0.3-0.6-0.7c0-0.4,0.3-0.6,0.6-0.6h5.3c0.4,0,0.7,0.3,0.7,0.6
			C21.8,25.3,21.5,25.6,21.2,25.6z"/>
	</g>
</g>
<g>
	<g>
		<path class="st0" d="M21.2,20.3h-4c-0.4,0-0.6-0.3-0.6-0.6s0.3-0.6,0.6-0.6h4c0.4,0,0.7,0.3,0.7,0.6S21.5,20.3,21.2,20.3z"/>
	</g>
</g>
<g>
	<g>
		<path class="st0" d="M19.2,15c-0.4,0-0.6-0.3-0.6-0.6v-2.2c0-0.4,0.3-0.6,0.6-0.6s0.6,0.3,0.6,0.6v2.2C19.8,14.8,19.5,15,19.2,15z
			"/>
	</g>
</g>
<g>
	<g>
		<path class="st0" d="M19.2,27.9c-0.4,0-0.6-0.3-0.6-0.6V25c0-0.4,0.3-0.6,0.6-0.6s0.6,0.3,0.6,0.6v2.2
			C19.8,27.6,19.5,27.9,19.2,27.9z"/>
	</g>
</g>
<g>
	<g>
		<path class="st0" d="M19.2,32.8c-7.2,0-13.1-5.9-13.1-13.1S11.9,6.6,19.2,6.6s13.1,5.9,13.1,13.1S26.4,32.8,19.2,32.8z M19.2,7.9
			c-6.5,0-11.8,5.3-11.8,11.8s5.3,11.8,11.8,11.8c6.5,0,11.8-5.3,11.8-11.8S25.7,7.9,19.2,7.9z"/>
	</g>
</g>
</svg>
