<?xml version="1.0" encoding="utf-8"?>
<!-- Generator: Adobe Illustrator 22.0.1, SVG Export Plug-In . SVG Version: 6.00 Build 0)  -->
<svg version="1.1" id="Слой_1" xmlns="http://www.w3.org/2000/svg" xmlns:xlink="http://www.w3.org/1999/xlink" x="0px" y="0px"
	 viewBox="0 0 38.3 38.3" style="enable-background:new 0 0 38.3 38.3;" xml:space="preserve">
<style type="text/css">
	.st0{fill:#FFFFFF;}
</style>
<g>
	<g>
		<path class="st0" d="M27.5,15.5c0.4,0,0.6,0.3,0.6,0.6s-0.3,0.6-0.6,0.6s-0.6-0.3-0.6-0.6S27.1,15.5,27.5,15.5z"/>
	</g>
</g>
<g>
	<g>
		<path class="st0" d="M23.3,15.5c0.4,0,0.6,0.3,0.6,0.6s-0.3,0.6-0.6,0.6c-0.4,0-0.6-0.3-0.6-0.6S23,15.5,23.3,15.5z"/>
	</g>
</g>
<g>
	<g>
		<path class="st0" d="M19.2,15.5c0.4,0,0.6,0.3,0.6,0.6s-0.3,0.6-0.6,0.6c-0.4,0-0.6-0.3-0.6-0.6S18.8,15.5,19.2,15.5z"/>
	</g>
</g>
<g>
	<g>
		<path class="st0" d="M15,15.5c0.4,0,0.6,0.3,0.6,0.6s-0.3,0.6-0.6,0.6c-0.4,0-0.6-0.3-0.6-0.6S14.6,15.5,15,15.5z"/>
	</g>
</g>
<g>
	<g>
		<path class="st0" d="M10.8,15.5c0.4,0,0.6,0.3,0.6,0.6s-0.3,0.6-0.6,0.6c-0.4,0-0.6-0.3-0.6-0.6S10.5,15.5,10.8,15.5z"/>
	</g>
</g>
<g>
	<g>
		<path class="st0" d="M27.5,19.7c0.4,0,0.6,0.3,0.6,0.6c0,0.4-0.3,0.6-0.6,0.6s-0.6-0.3-0.6-0.6C26.9,20,27.1,19.7,27.5,19.7z"/>
	</g>
</g>
<g>
	<g>
		<path class="st0" d="M23.3,19.7c0.4,0,0.6,0.3,0.6,0.6c0,0.4-0.3,0.6-0.6,0.6c-0.4,0-0.6-0.3-0.6-0.6C22.7,20,23,19.7,23.3,19.7z"
			/>
	</g>
</g>
<g>
	<g>
		<path class="st0" d="M19.2,19.7c0.4,0,0.6,0.3,0.6,0.6c0,0.4-0.3,0.6-0.6,0.6c-0.4,0-0.6-0.3-0.6-0.6C18.5,20,18.8,19.7,19.2,19.7
			z"/>
	</g>
</g>
<g>
	<g>
		<path class="st0" d="M10.8,19.7c0.4,0,0.6,0.3,0.6,0.6c0,0.4-0.3,0.6-0.6,0.6c-0.4,0-0.6-0.3-0.6-0.6C10.2,20,10.5,19.7,10.8,19.7
			z"/>
	</g>
</g>
<g>
	<g>
		<path class="st0" d="M27.5,23.9c0.4,0,0.6,0.3,0.6,0.6s-0.3,0.6-0.6,0.6s-0.6-0.3-0.6-0.6S27.1,23.9,27.5,23.9z"/>
	</g>
</g>
<g>
	<g>
		<path class="st0" d="M23.3,23.9c0.4,0,0.6,0.3,0.6,0.6s-0.3,0.6-0.6,0.6c-0.4,0-0.6-0.3-0.6-0.6S23,23.9,23.3,23.9z"/>
	</g>
</g>
<g>
	<g>
		<path class="st0" d="M19.2,23.9c0.4,0,0.6,0.3,0.6,0.6s-0.3,0.6-0.6,0.6c-0.4,0-0.6-0.3-0.6-0.6S18.8,23.9,19.2,23.9z"/>
	</g>
</g>
<g>
	<g>
		<path class="st0" d="M15,23.9c0.4,0,0.6,0.3,0.6,0.6s-0.3,0.6-0.6,0.6c-0.4,0-0.6-0.3-0.6-0.6S14.6,23.9,15,23.9z"/>
	</g>
</g>
<g>
	<g>
		<path class="st0" d="M10.8,23.9c0.4,0,0.6,0.3,0.6,0.6s-0.3,0.6-0.6,0.6c-0.4,0-0.6-0.3-0.6-0.6S10.5,23.9,10.8,23.9z"/>
	</g>
</g>
<g>
	<g>
		<path class="st0" d="M17,17.8H13c-0.3,0-0.6,0.2-0.6,0.6v3.9c0,0.3,0.2,0.6,0.6,0.6H17c0.3,0,0.6-0.2,0.6-0.6v-3.9
			C17.5,18.1,17.3,17.8,17,17.8z M16.4,21.7h-2.8v-2.8h2.8V21.7z"/>
	</g>
</g>
<g>
	<g>
		<path class="st0" d="M30.8,10.4h-4.1V9.6c0-0.3-0.3-0.6-0.6-0.6s-0.6,0.3-0.6,0.6v0.7h-3.4V9.6c0-0.3-0.3-0.6-0.6-0.6
			c-0.3,0-0.6,0.3-0.6,0.6v0.7h-3.4V9.6c0-0.3-0.3-0.6-0.6-0.6s-0.6,0.3-0.6,0.6v0.7h-3.4V9.6c0-0.3-0.3-0.6-0.6-0.6
			c-0.3,0-0.6,0.3-0.6,0.6v0.7H7.5c-1,0-1.9,0.8-1.9,1.9v15.2c0,1,0.8,1.9,1.9,1.9h23.3c1,0,1.9-0.8,1.9-1.9V12.2
			C32.7,11.2,31.8,10.4,30.8,10.4z M31.4,27.4c0,0.3-0.3,0.6-0.6,0.6H7.5c-0.3,0-0.6-0.3-0.6-0.6V12.2c0-0.3,0.3-0.6,0.6-0.6h4.1
			v0.7c0,0.3,0.3,0.6,0.6,0.6c0.3,0,0.6-0.3,0.6-0.6v-0.7h3.4v0.7c0,0.3,0.3,0.6,0.6,0.6c0.3,0,0.6-0.3,0.6-0.6v-0.7h3.4v0.7
			c0,0.3,0.3,0.6,0.6,0.6c0.3,0,0.6-0.3,0.6-0.6v-0.7h3.4v0.7c0,0.3,0.3,0.6,0.6,0.6c0.3,0,0.6-0.3,0.6-0.6v-0.7h4.1
			c0.3,0,0.6,0.3,0.6,0.6L31.4,27.4L31.4,27.4z"/>
	</g>
</g>
</svg>
